<?xml version="1.0" encoding="utf-8" standalone="no"?>
<!DOCTYPE svg PUBLIC "-//W3C//DTD SVG 1.1//EN"
  "http://www.w3.org/Graphics/SVG/1.1/DTD/svg11.dtd">
<svg height="288pt" version="1.1" viewBox="0 0 720 288" width="720pt" xmlns="http://www.w3.org/2000/svg" xmlns:xlink="http://www.w3.org/1999/xlink">
 <metadata>
  <rdf:RDF xmlns:cc="http://creativecommons.org/ns#" xmlns:dc="http://purl.org/dc/elements/1.1/" xmlns:rdf="http://www.w3.org/1999/02/22-rdf-syntax-ns#">
   <cc:Work>
    <dc:type rdf:resource="http://purl.org/dc/dcmitype/StillImage"/>
    <dc:date>2022-04-08T14:26:09.912741</dc:date>
    <dc:format>image/svg+xml</dc:format>
    <dc:creator>
     <cc:Agent>
      <dc:title>Matplotlib v3.4.3, https://matplotlib.org/</dc:title>
     </cc:Agent>
    </dc:creator>
   </cc:Work>
  </rdf:RDF>
 </metadata>
 <defs>
  <style type="text/css">*{stroke-linecap:butt;stroke-linejoin:round;}</style>
 </defs>
 <g id="figure_1">
  <g id="patch_1">
   <path d="M 0 288 
L 720 288 
L 720 0 
L 0 0 
z
" style="fill:#ffffff;"/>
  </g>
  <g id="axes_1">
   <g id="patch_2">
    <path d="M 14.3 250.76 
L 596.44 250.76 
L 596.44 10.8 
L 14.3 10.8 
z
" style="fill:#ffffff;"/>
   </g>
   <g id="PolyCollection_1">
    <defs>
     <path d="M 390.583097 -39.952596 
L 390.583097 -261.589907 
L 569.979091 -261.589907 
L 569.979091 -39.952596 
L 569.979091 -39.952596 
L 390.583097 -39.952596 
z
" id="mb9d3afc221" style="stroke:#cccccc;"/>
    </defs>
    <g clip-path="url(#pf3d62c5440)">
     <use style="fill:#cccccc;stroke:#cccccc;" x="0" xlink:href="#mb9d3afc221" y="288"/>
    </g>
   </g>
   <g id="matplotlib.axis_1">
    <g id="xtick_1">
     <g id="line2d_1">
      <defs>
       <path d="M 0 0 
L 0 3.5 
" id="mbed1fa630c" style="stroke:#000000;stroke-width:0.8;"/>
      </defs>
      <g>
       <use style="stroke:#000000;stroke-width:0.8;" x="40.760909" xlink:href="#mbed1fa630c" y="250.76"/>
      </g>
     </g>
     <g id="text_1">
      <!-- 0 -->
      <g transform="translate(34.398409 272.956875)scale(0.2 -0.2)">
       <defs>
        <path d="M 2034 4250 
Q 1547 4250 1301 3770 
Q 1056 3291 1056 2328 
Q 1056 1369 1301 889 
Q 1547 409 2034 409 
Q 2525 409 2770 889 
Q 3016 1369 3016 2328 
Q 3016 3291 2770 3770 
Q 2525 4250 2034 4250 
z
M 2034 4750 
Q 2819 4750 3233 4129 
Q 3647 3509 3647 2328 
Q 3647 1150 3233 529 
Q 2819 -91 2034 -91 
Q 1250 -91 836 529 
Q 422 1150 422 2328 
Q 422 3509 836 4129 
Q 1250 4750 2034 4750 
z
" id="DejaVuSans-30" transform="scale(0.015625)"/>
       </defs>
       <use xlink:href="#DejaVuSans-30"/>
      </g>
     </g>
    </g>
    <g id="xtick_2">
     <g id="line2d_2">
      <g>
       <use style="stroke:#000000;stroke-width:0.8;" x="94.579707" xlink:href="#mbed1fa630c" y="250.76"/>
      </g>
     </g>
    </g>
    <g id="xtick_3">
     <g id="line2d_3">
      <g>
       <use style="stroke:#000000;stroke-width:0.8;" x="148.398505" xlink:href="#mbed1fa630c" y="250.76"/>
      </g>
     </g>
     <g id="text_2">
      <!-- 4 -->
      <g transform="translate(142.036005 272.956875)scale(0.2 -0.2)">
       <defs>
        <path d="M 2419 4116 
L 825 1625 
L 2419 1625 
L 2419 4116 
z
M 2253 4666 
L 3047 4666 
L 3047 1625 
L 3713 1625 
L 3713 1100 
L 3047 1100 
L 3047 0 
L 2419 0 
L 2419 1100 
L 313 1100 
L 313 1709 
L 2253 4666 
z
" id="DejaVuSans-34" transform="scale(0.015625)"/>
       </defs>
       <use xlink:href="#DejaVuSans-34"/>
      </g>
     </g>
    </g>
    <g id="xtick_4">
     <g id="line2d_4">
      <g>
       <use style="stroke:#000000;stroke-width:0.8;" x="202.217304" xlink:href="#mbed1fa630c" y="250.76"/>
      </g>
     </g>
    </g>
    <g id="xtick_5">
     <g id="line2d_5">
      <g>
       <use style="stroke:#000000;stroke-width:0.8;" x="256.036102" xlink:href="#mbed1fa630c" y="250.76"/>
      </g>
     </g>
     <g id="text_3">
      <!-- 8 -->
      <g transform="translate(249.673602 272.956875)scale(0.2 -0.2)">
       <defs>
        <path d="M 2034 2216 
Q 1584 2216 1326 1975 
Q 1069 1734 1069 1313 
Q 1069 891 1326 650 
Q 1584 409 2034 409 
Q 2484 409 2743 651 
Q 3003 894 3003 1313 
Q 3003 1734 2745 1975 
Q 2488 2216 2034 2216 
z
M 1403 2484 
Q 997 2584 770 2862 
Q 544 3141 544 3541 
Q 544 4100 942 4425 
Q 1341 4750 2034 4750 
Q 2731 4750 3128 4425 
Q 3525 4100 3525 3541 
Q 3525 3141 3298 2862 
Q 3072 2584 2669 2484 
Q 3125 2378 3379 2068 
Q 3634 1759 3634 1313 
Q 3634 634 3220 271 
Q 2806 -91 2034 -91 
Q 1263 -91 848 271 
Q 434 634 434 1313 
Q 434 1759 690 2068 
Q 947 2378 1403 2484 
z
M 1172 3481 
Q 1172 3119 1398 2916 
Q 1625 2713 2034 2713 
Q 2441 2713 2670 2916 
Q 2900 3119 2900 3481 
Q 2900 3844 2670 4047 
Q 2441 4250 2034 4250 
Q 1625 4250 1398 4047 
Q 1172 3844 1172 3481 
z
" id="DejaVuSans-38" transform="scale(0.015625)"/>
       </defs>
       <use xlink:href="#DejaVuSans-38"/>
      </g>
     </g>
    </g>
    <g id="xtick_6">
     <g id="line2d_6">
      <g>
       <use style="stroke:#000000;stroke-width:0.8;" x="309.8549" xlink:href="#mbed1fa630c" y="250.76"/>
      </g>
     </g>
    </g>
    <g id="xtick_7">
     <g id="line2d_7">
      <g>
       <use style="stroke:#000000;stroke-width:0.8;" x="363.673698" xlink:href="#mbed1fa630c" y="250.76"/>
      </g>
     </g>
     <g id="text_4">
      <!-- 12 -->
      <g transform="translate(350.948698 272.956875)scale(0.2 -0.2)">
       <defs>
        <path d="M 794 531 
L 1825 531 
L 1825 4091 
L 703 3866 
L 703 4441 
L 1819 4666 
L 2450 4666 
L 2450 531 
L 3481 531 
L 3481 0 
L 794 0 
L 794 531 
z
" id="DejaVuSans-31" transform="scale(0.015625)"/>
        <path d="M 1228 531 
L 3431 531 
L 3431 0 
L 469 0 
L 469 531 
Q 828 903 1448 1529 
Q 2069 2156 2228 2338 
Q 2531 2678 2651 2914 
Q 2772 3150 2772 3378 
Q 2772 3750 2511 3984 
Q 2250 4219 1831 4219 
Q 1534 4219 1204 4116 
Q 875 4013 500 3803 
L 500 4441 
Q 881 4594 1212 4672 
Q 1544 4750 1819 4750 
Q 2544 4750 2975 4387 
Q 3406 4025 3406 3419 
Q 3406 3131 3298 2873 
Q 3191 2616 2906 2266 
Q 2828 2175 2409 1742 
Q 1991 1309 1228 531 
z
" id="DejaVuSans-32" transform="scale(0.015625)"/>
       </defs>
       <use xlink:href="#DejaVuSans-31"/>
       <use x="63.623047" xlink:href="#DejaVuSans-32"/>
      </g>
     </g>
    </g>
   </g>
   <g id="matplotlib.axis_2"/>
   <g id="line2d_8">
    <path clip-path="url(#pf3d62c5440)" d="M 40.760909 229.947234 
L 42.422116 226.748163 
L 44.033989 223.154394 
L 45.599668 219.111406 
L 47.124982 214.545934 
L 48.619799 209.356003 
L 50.098022 203.402344 
L 51.581178 196.482413 
L 53.100214 188.302789 
L 54.704463 178.404051 
L 56.479138 166.003794 
L 58.611259 149.44052 
L 61.958788 121.415305 
L 65.793826 89.827438 
L 67.936711 73.98977 
L 69.63604 63.000655 
L 71.044747 55.264482 
L 72.230106 49.921573 
L 73.231584 46.366888 
L 74.075194 44.13267 
L 74.78022 42.843425 
L 75.364154 42.197949 
L 75.850765 41.964648 
L 76.282213 41.996195 
L 76.717697 42.260081 
L 77.202963 42.833096 
L 77.764024 43.866084 
L 78.414783 45.563558 
L 79.167349 48.189384 
L 80.035177 52.074725 
L 81.040692 57.656936 
L 82.225154 65.561057 
L 83.67871 76.859616 
L 85.68346 94.355305 
L 91.410677 145.250898 
L 93.462967 160.995199 
L 95.341692 173.737513 
L 97.135203 184.417694 
L 98.882072 193.51079 
L 100.603825 201.322469 
L 102.313469 208.069759 
L 104.019973 213.919128 
L 105.72872 218.999009 
L 107.443745 223.414505 
L 109.168189 227.252363 
L 110.904294 230.584028 
L 112.653854 233.469069 
L 114.418213 235.957 
L 116.198718 238.089364 
L 117.996266 239.900264 
L 119.812651 241.41857 
L 121.648769 242.666791 
L 123.505966 243.662945 
L 125.38469 244.420182 
L 127.285391 244.947814 
L 129.20717 245.251278 
L 131.147787 245.332885 
L 133.103203 245.192473 
L 135.068486 244.827948 
L 137.03646 244.235995 
L 138.999949 243.412065 
L 140.950432 242.351023 
L 142.880285 241.046289 
L 144.781882 239.490098 
L 146.648946 237.672234 
L 148.475646 235.580265 
L 150.257945 233.19745 
L 151.993153 230.5019 
L 153.679026 227.466876 
L 155.316015 224.055407 
L 156.905463 220.221075 
L 158.451857 215.900088 
L 159.96282 211.00561 
L 161.449564 205.419681 
L 162.929132 198.975596 
L 164.427537 191.428419 
L 165.982901 182.416021 
L 167.658908 171.346664 
L 169.575305 157.13041 
L 172.063528 136.869679 
L 178.746477 81.615968 
L 180.697857 67.760872 
L 182.28013 58.034593 
L 183.600933 51.220939 
L 184.714982 46.570191 
L 185.655465 43.533457 
L 186.445705 41.676075 
L 187.10364 40.649346 
L 187.647658 40.17588 
L 188.106463 40.050528 
L 188.531183 40.16372 
L 188.979225 40.526555 
L 189.488709 41.247147 
L 190.079819 42.497472 
L 190.765112 44.503953 
L 191.556248 47.553159 
L 192.469374 52.012107 
L 193.531398 58.371637 
L 194.795691 67.374004 
L 196.387831 80.423452 
L 198.837932 102.597386 
L 202.780158 138.093236 
L 204.929322 155.344326 
L 206.849757 169.014218 
L 208.664796 180.378716 
L 210.423325 190.015037 
L 212.150908 198.272967 
L 213.862794 205.395077 
L 215.56885 211.562641 
L 217.275355 216.915838 
L 218.987241 221.569059 
L 220.707649 225.614308 
L 222.43882 229.127646 
L 224.182549 232.172671 
L 225.940181 234.802384 
L 227.713062 237.061367 
L 229.502537 238.986781 
L 231.309503 240.608886 
L 233.135755 241.953032 
L 234.982188 243.038653 
L 236.849252 243.880558 
L 238.737843 244.489749 
L 240.647513 244.873041 
L 242.576917 245.033909 
L 244.522467 244.973002 
L 246.479677 244.688918 
L 248.442718 244.178584 
L 250.403964 243.437956 
L 252.355793 242.461881 
L 254.29013 241.244313 
L 256.199801 239.777489 
L 258.077628 238.052276 
L 259.917783 236.056783 
L 261.71533 233.776038 
L 263.467132 231.189928 
L 265.170497 228.273863 
L 266.824977 224.994588 
L 268.431468 221.309378 
L 269.99311 217.161521 
L 271.516182 212.473629 
L 273.010551 207.139893 
L 274.491016 201.012767 
L 275.979554 193.880974 
L 277.509354 185.430599 
L 279.132887 175.169685 
L 280.942993 162.243333 
L 283.154049 144.745631 
L 287.134397 111.052531 
L 290.30253 85.157363 
L 292.37276 69.991034 
L 294.028585 59.416885 
L 295.404553 51.986028 
L 296.563002 46.876621 
L 297.541607 43.498952 
L 298.365035 41.39632 
L 299.052122 40.200685 
L 299.620358 39.61802 
L 300.095309 39.424445 
L 300.522272 39.484907 
L 300.960446 39.782501 
L 301.452888 40.406065 
L 302.023368 41.51489 
L 302.685339 43.322744 
L 303.450014 46.100697 
L 304.332194 50.195284 
L 305.3552 56.061515 
L 306.56388 64.363708 
L 308.0578 76.272092 
L 310.172879 95.108488 
L 315.28118 141.14669 
L 317.372937 157.639558 
L 319.269153 170.874867 
L 321.071186 181.927015 
L 322.822539 191.321329 
L 324.546535 199.384371 
L 326.256627 206.343274 
L 327.962234 212.372726 
L 329.669187 217.607577 
L 331.381971 222.157973 
L 333.103724 226.113612 
L 334.836689 229.548495 
L 336.582212 232.523691 
L 338.342087 235.091528 
L 340.11721 237.294651 
L 341.908928 239.169226 
L 343.718136 240.744634 
L 345.54663 242.045411 
L 347.395306 243.090272 
L 349.264612 243.893373 
L 351.155446 244.46508 
L 353.06691 244.811565 
L 354.997211 244.935876 
L 356.943209 244.838357 
L 358.899971 244.517277 
L 360.861217 243.96943 
L 362.819773 243.190449 
L 364.768014 242.17489 
L 366.697866 240.916416 
L 368.601706 239.407346 
L 370.472806 237.638007 
L 372.305785 235.595682 
L 374.095708 233.264868 
L 375.839437 230.62486 
L 377.534729 227.649624 
L 379.181136 224.304877 
L 380.780451 220.544542 
L 382.335815 216.309746 
L 383.853505 211.520716 
L 385.344734 206.06395 
L 386.825199 199.783284 
L 388.318223 192.45433 
L 389.859234 183.741696 
L 392.47707 168.598864 
L 394.766612 156.886371 
L 397.060638 146.291026 
L 399.360046 136.704677 
L 401.666182 128.02856 
L 403.979941 120.17578 
L 406.303568 113.064184 
L 408.639304 106.620894 
L 410.989391 100.78113 
L 413.35697 95.485286 
L 415.746076 90.67901 
L 418.160746 86.314675 
L 420.606811 82.34765 
L 423.090548 78.738776 
L 425.620032 75.452071 
L 428.203782 72.456528 
L 430.853461 69.722816 
L 433.581626 67.226101 
L 436.403525 64.944106 
L 439.337098 62.857405 
L 442.403872 60.949004 
L 445.629412 59.204409 
L 449.044215 57.611461 
L 452.685505 56.159948 
L 456.59858 54.841675 
L 460.840847 53.649859 
L 465.484961 52.579347 
L 470.627347 51.625977 
L 476.398068 50.786717 
L 482.981452 50.059196 
L 490.650631 49.441625 
L 499.836603 48.93257 
L 511.279825 48.530692 
L 526.415913 48.234419 
L 548.615719 48.041283 
L 569.979091 47.971129 
L 569.979091 47.971129 
" style="fill:none;stroke:#4c994c;stroke-linecap:square;stroke-width:3;"/>
   </g>
   <g id="line2d_9">
    <path clip-path="url(#pf3d62c5440)" d="M 390.583097 248.047404 
L 390.583097 26.410093 
L 390.583097 26.410093 
" style="fill:none;stroke:#000000;stroke-dasharray:11.1,4.8;stroke-dashoffset:0;stroke-width:3;"/>
   </g>
   <g id="patch_3">
    <path d="M 14.3 250.76 
L 14.3 10.8 
" style="fill:none;stroke:#000000;stroke-linecap:square;stroke-linejoin:miter;stroke-width:0.8;"/>
   </g>
   <g id="patch_4">
    <path d="M 14.3 250.76 
L 596.44 250.76 
" style="fill:none;stroke:#000000;stroke-linecap:square;stroke-linejoin:miter;stroke-width:0.8;"/>
   </g>
  </g>
  <g id="axes_2">
   <g id="line2d_10">
    <path clip-path="url(#pf3d62c5440)" d="M 40.760909 192.061483 
L 46.048158 215.114258 
L 48.727885 225.856383 
L 50.657738 232.728139 
L 52.188882 237.403717 
L 53.466182 240.628915 
L 54.563637 242.829794 
L 55.524751 244.286982 
L 56.37733 245.198278 
L 57.145594 245.710344 
L 57.85645 245.926394 
L 58.543985 245.905293 
L 59.246321 245.657405 
L 59.998438 245.147431 
L 60.825903 244.305604 
L 61.746204 243.037265 
L 62.767864 241.233498 
L 63.891332 238.780008 
L 65.110776 235.562504 
L 66.416779 231.467154 
L 67.800819 226.371239 
L 69.261551 220.117316 
L 70.807047 212.491071 
L 72.461078 203.171699 
L 74.274772 191.631922 
L 76.362044 176.850185 
L 79.087966 155.82051 
L 85.571786 105.230166 
L 87.838903 89.638902 
L 89.808671 77.582362 
L 91.597697 67.963096 
L 93.253971 60.231577 
L 94.800364 54.036789 
L 96.249884 49.114559 
L 97.609257 45.255597 
L 98.882969 42.282602 
L 100.07371 40.044603 
L 101.185516 38.408489 
L 102.223322 37.260517 
L 103.195648 36.503809 
L 104.116398 36.060204 
L 105.006202 35.87379 
L 105.890625 35.915084 
L 106.799265 36.183135 
L 107.759482 36.704172 
L 108.795943 37.527947 
L 109.929277 38.723236 
L 111.177425 40.375024 
L 112.557877 42.584659 
L 114.088573 45.470117 
L 115.788799 49.166812 
L 117.682323 53.834702 
L 119.798299 59.662981 
L 122.174399 66.881563 
L 124.861303 75.779699 
L 127.929871 86.737511 
L 131.48236 100.277571 
L 135.670808 117.151288 
L 140.732466 138.504852 
L 147.172782 166.693651 
L 158.740684 217.522171 
L 161.234737 227.314918 
L 163.07534 233.693171 
L 164.552666 238.054875 
L 165.793189 241.062388 
L 166.863735 243.107115 
L 167.80377 244.450012 
L 168.639755 245.277793 
L 169.395909 245.728632 
L 170.100487 245.897834 
L 170.788471 245.835407 
L 171.498431 245.542691 
L 172.263106 244.977504 
L 173.107164 244.064462 
L 174.046302 242.705556 
L 175.087247 240.790691 
L 176.229551 238.204496 
L 177.466038 234.833947 
L 178.78729 230.564259 
L 180.185682 225.268631 
L 181.661214 218.782317 
L 183.225098 210.872489 
L 184.904693 201.191333 
L 186.758751 189.15251 
L 188.923163 173.562161 
L 191.905173 150.296782 
L 197.204979 108.868598 
L 199.557758 92.374641 
L 201.571478 79.775372 
L 203.390105 69.756423 
L 205.069251 61.707704 
L 206.635378 55.251092 
L 208.102389 50.111902 
L 209.478356 46.07097 
L 210.767765 42.946776 
L 211.974203 40.582681 
L 213.10081 38.843851 
L 214.152071 37.613221 
L 215.136058 36.79029 
L 216.065329 36.293452 
L 216.959169 36.062298 
L 217.842695 36.062136 
L 218.745056 36.286759 
L 219.694061 36.757604 
L 220.714824 37.520183 
L 221.828874 38.640059 
L 223.054597 40.199383 
L 224.409485 42.296503 
L 225.911029 45.045724 
L 227.578515 48.579646 
L 229.434367 53.052384 
L 231.50639 58.646376 
L 233.830466 65.582714 
L 236.455029 74.139533 
L 239.446009 84.675354 
L 242.898485 97.680021 
L 246.952834 113.851051 
L 251.825678 134.238698 
L 257.926038 160.767824 
L 271.563273 220.473949 
L 273.844294 229.175702 
L 275.574568 234.949787 
L 276.983275 238.918769 
L 278.17581 241.650601 
L 279.210476 243.495947 
L 280.121808 244.692194 
L 280.935369 245.412949 
L 281.675826 245.785061 
L 282.372779 245.892595 
L 283.063005 245.773425 
L 283.784177 245.416977 
L 284.567241 244.771554 
L 285.43462 243.754927 
L 286.399322 242.265598 
L 287.46628 240.191481 
L 288.633251 237.417292 
L 289.892162 233.829967 
L 291.233596 229.313064 
L 292.651273 223.733239 
L 294.147884 216.910927 
L 295.737781 208.591464 
L 297.4546 198.381245 
L 299.369652 185.595523 
L 301.659642 168.718846 
L 305.247114 140.358121 
L 309.182613 109.780402 
L 311.558265 93.050919 
L 313.583197 80.315606 
L 315.409448 70.19667 
L 317.094425 62.069337 
L 318.665486 55.548434 
L 320.136981 50.355721 
L 321.516985 46.270639 
L 322.81043 43.109295 
L 324.020456 40.715122 
L 325.150202 38.952032 
L 326.204602 37.701382 
L 327.19128 36.86239 
L 328.122794 36.352495 
L 329.01798 36.110482 
L 329.901505 36.10049 
L 330.802522 36.314963 
L 331.749284 36.774351 
L 332.766908 37.523272 
L 333.876472 38.625914 
L 335.097262 40.164463 
L 336.44632 42.236048 
L 337.941137 44.954184 
L 339.600998 48.450746 
L 341.44788 52.878092 
L 343.510037 58.41906 
L 345.822451 65.291667 
L 348.432663 73.77023 
L 351.406151 84.21054 
L 354.835754 97.092875 
L 358.860055 113.105805 
L 363.691189 133.278962 
L 369.721137 159.460894 
L 383.832426 221.180365 
L 386.06456 229.628869 
L 387.768822 235.258478 
L 389.160487 239.130409 
L 390.341361 241.794683 
L 390.73962 242.341109 
L 392.944397 243.310582 
L 395.399431 244.143653 
L 398.191281 244.851426 
L 401.449112 245.441773 
L 405.378333 245.91994 
L 410.340875 246.289578 
L 417.06957 246.553566 
L 427.434622 246.715438 
L 448.990396 246.783107 
L 569.979091 246.789835 
L 569.979091 246.789835 
" style="fill:none;stroke:#0064ff;stroke-linecap:square;stroke-width:3;"/>
   </g>
   <g id="line2d_11"/>
   <g id="line2d_12">
    <path clip-path="url(#pf3d62c5440)" d="M 40.760909 190.513421 
L 43.298465 191.852474 
L 45.488891 192.76469 
L 47.405288 193.328643 
L 49.109102 193.603656 
L 50.653701 193.631567 
L 52.087075 193.437099 
L 53.453176 193.02735 
L 54.792367 192.391406 
L 56.143667 191.499295 
L 57.547441 190.29958 
L 59.050331 188.713652 
L 60.716919 186.619499 
L 62.658433 183.805744 
L 65.161007 179.75824 
L 73.898937 165.286138 
L 76.29208 161.940322 
L 78.471741 159.265619 
L 80.525377 157.089829 
L 82.496939 155.318722 
L 84.413785 153.890683 
L 86.296994 152.761119 
L 88.165403 151.897006 
L 90.036504 151.274958 
L 91.928683 150.879499 
L 93.861675 150.702868 
L 95.856558 150.744952 
L 97.936206 151.013167 
L 100.125286 151.522376 
L 102.4525 152.295432 
L 104.951038 153.363847 
L 107.662609 154.770096 
L 110.642825 156.571915 
L 113.973311 158.852192 
L 117.792203 161.744977 
L 122.384741 165.515002 
L 128.709795 171.020494 
L 141.237466 181.971639 
L 145.82507 185.648812 
L 149.478021 188.302202 
L 152.521922 190.247833 
L 155.10971 191.646715 
L 157.34005 192.607483 
L 159.288291 193.211456 
L 161.016771 193.520043 
L 162.579759 193.577206 
L 164.02569 193.409819 
L 165.398967 193.027263 
L 166.7404 192.420934 
L 168.08901 191.563421 
L 169.485159 190.405946 
L 170.974146 188.873928 
L 172.616965 186.852857 
L 174.51632 184.147439 
L 176.91888 180.311774 
L 186.630034 164.366162 
L 188.958594 161.213127 
L 191.101928 158.676118 
L 193.13269 156.60962 
L 195.089004 154.930264 
L 196.996432 153.581306 
L 198.874708 152.521765 
L 200.742668 151.720916 
L 202.617805 151.157507 
L 204.518954 150.818 
L 206.466298 150.696609 
L 208.480915 150.795153 
L 210.586127 151.122869 
L 212.807946 151.696662 
L 215.175525 152.54135 
L 217.724293 153.691109 
L 220.498204 155.191444 
L 223.558699 157.105592 
L 226.997721 159.526011 
L 230.976724 162.607683 
L 235.859883 166.684825 
L 243.264004 173.194307 
L 252.62399 181.366446 
L 257.384711 185.223917 
L 261.134984 187.98694 
L 264.247953 190.013833 
L 266.889111 191.477002 
L 269.162058 192.489933 
L 271.143487 193.136499 
L 272.897531 193.480729 
L 274.479355 193.56882 
L 275.938293 193.429856 
L 277.318745 193.075586 
L 278.662421 192.499663 
L 280.00834 191.677163 
L 281.396416 190.562305 
L 282.870603 189.084677 
L 284.489203 187.136179 
L 286.346849 184.53641 
L 288.657021 180.896443 
L 292.632436 174.134465 
L 296.536093 167.666018 
L 299.146753 163.765434 
L 301.435397 160.734929 
L 303.555858 158.287381 
L 305.571372 156.293471 
L 307.51737 154.675369 
L 309.418519 153.379291 
L 311.294104 152.366462 
L 313.162065 151.608217 
L 315.040341 151.084493 
L 316.948217 150.783069 
L 318.905876 150.699562 
L 320.934396 150.837043 
L 323.057997 151.206074 
L 325.303137 151.82495 
L 327.699419 152.719851 
L 330.283619 153.926711 
L 333.102378 155.493736 
L 336.220729 157.487897 
L 339.738684 160.009025 
L 343.838331 163.230362 
L 348.957845 167.551349 
L 357.885935 175.437951 
L 365.264043 181.822708 
L 369.890666 185.53979 
L 373.566042 188.217758 
L 376.62564 190.181432 
L 379.225537 191.594601 
L 381.465744 192.56708 
L 383.421609 193.180613 
L 385.15592 193.497247 
L 386.723392 193.561469 
L 388.172463 193.400616 
L 389.547534 193.024622 
L 390.77236 192.467421 
L 392.844832 191.05497 
L 394.841061 189.423765 
L 396.798271 187.53426 
L 398.750997 185.335494 
L 400.736013 182.759302 
L 402.798619 179.709781 
L 405.006086 176.037837 
L 407.486685 171.463019 
L 410.615799 165.191908 
L 418.603854 148.964941 
L 421.142756 144.445701 
L 423.397315 140.874341 
L 425.506564 137.940288 
L 427.540466 135.484854 
L 429.545216 133.408006 
L 431.558039 131.639437 
L 433.614814 130.126277 
L 435.753663 128.828287 
L 438.018537 127.71475 
L 440.464602 126.762026 
L 443.164511 125.952475 
L 446.220074 125.273218 
L 449.783775 124.715134 
L 454.105425 124.271737 
L 459.643379 123.938282 
L 467.391492 123.710743 
L 480.219651 123.583995 
L 513.943407 123.54497 
L 569.979091 123.544041 
L 569.979091 123.544041 
" style="fill:none;stroke:#ff4c4c;stroke-linecap:square;stroke-width:3;"/>
   </g>
   <g id="patch_5">
    <path d="M 14.3 250.76 
L 14.3 10.8 
" style="fill:none;stroke:#000000;stroke-linecap:square;stroke-linejoin:miter;stroke-width:0.8;"/>
   </g>
   <g id="patch_6">
    <path d="M 14.3 250.76 
L 596.44 250.76 
" style="fill:none;stroke:#000000;stroke-linecap:square;stroke-linejoin:miter;stroke-width:0.8;"/>
   </g>
   <g id="legend_1">
    <g id="patch_7">
     <path d="M 589.77955 114.86875 
L 710.5108 114.86875 
Q 714.5108 114.86875 714.5108 110.86875 
L 714.5108 24.8 
Q 714.5108 20.8 710.5108 20.8 
L 589.77955 20.8 
Q 585.77955 20.8 585.77955 24.8 
L 585.77955 110.86875 
Q 585.77955 114.86875 589.77955 114.86875 
z
" style="fill:#ffffff;opacity:0.8;stroke:#cccccc;stroke-linejoin:miter;"/>
    </g>
    <g id="line2d_13">
     <path d="M 593.77955 36.996875 
L 633.77955 36.996875 
" style="fill:none;stroke:#0064ff;stroke-linecap:square;stroke-width:3;"/>
    </g>
    <g id="line2d_14"/>
    <g id="text_5">
     <!-- Hes1 -->
     <g transform="translate(649.77955 43.996875)scale(0.2 -0.2)">
      <defs>
       <path d="M 628 4666 
L 1259 4666 
L 1259 2753 
L 3553 2753 
L 3553 4666 
L 4184 4666 
L 4184 0 
L 3553 0 
L 3553 2222 
L 1259 2222 
L 1259 0 
L 628 0 
L 628 4666 
z
" id="DejaVuSans-48" transform="scale(0.015625)"/>
       <path d="M 3597 1894 
L 3597 1613 
L 953 1613 
Q 991 1019 1311 708 
Q 1631 397 2203 397 
Q 2534 397 2845 478 
Q 3156 559 3463 722 
L 3463 178 
Q 3153 47 2828 -22 
Q 2503 -91 2169 -91 
Q 1331 -91 842 396 
Q 353 884 353 1716 
Q 353 2575 817 3079 
Q 1281 3584 2069 3584 
Q 2775 3584 3186 3129 
Q 3597 2675 3597 1894 
z
M 3022 2063 
Q 3016 2534 2758 2815 
Q 2500 3097 2075 3097 
Q 1594 3097 1305 2825 
Q 1016 2553 972 2059 
L 3022 2063 
z
" id="DejaVuSans-65" transform="scale(0.015625)"/>
       <path d="M 2834 3397 
L 2834 2853 
Q 2591 2978 2328 3040 
Q 2066 3103 1784 3103 
Q 1356 3103 1142 2972 
Q 928 2841 928 2578 
Q 928 2378 1081 2264 
Q 1234 2150 1697 2047 
L 1894 2003 
Q 2506 1872 2764 1633 
Q 3022 1394 3022 966 
Q 3022 478 2636 193 
Q 2250 -91 1575 -91 
Q 1294 -91 989 -36 
Q 684 19 347 128 
L 347 722 
Q 666 556 975 473 
Q 1284 391 1588 391 
Q 1994 391 2212 530 
Q 2431 669 2431 922 
Q 2431 1156 2273 1281 
Q 2116 1406 1581 1522 
L 1381 1569 
Q 847 1681 609 1914 
Q 372 2147 372 2553 
Q 372 3047 722 3315 
Q 1072 3584 1716 3584 
Q 2034 3584 2315 3537 
Q 2597 3491 2834 3397 
z
" id="DejaVuSans-73" transform="scale(0.015625)"/>
      </defs>
      <use xlink:href="#DejaVuSans-48"/>
      <use x="75.195312" xlink:href="#DejaVuSans-65"/>
      <use x="136.71875" xlink:href="#DejaVuSans-73"/>
      <use x="188.818359" xlink:href="#DejaVuSans-31"/>
     </g>
    </g>
    <g id="line2d_15">
     <path d="M 593.77955 66.353125 
L 633.77955 66.353125 
" style="fill:none;stroke:#4c994c;stroke-linecap:square;stroke-width:3;"/>
    </g>
    <g id="line2d_16"/>
    <g id="text_6">
     <!-- MyoD -->
     <g transform="translate(649.77955 73.353125)scale(0.2 -0.2)">
      <defs>
       <path d="M 628 4666 
L 1569 4666 
L 2759 1491 
L 3956 4666 
L 4897 4666 
L 4897 0 
L 4281 0 
L 4281 4097 
L 3078 897 
L 2444 897 
L 1241 4097 
L 1241 0 
L 628 0 
L 628 4666 
z
" id="DejaVuSans-4d" transform="scale(0.015625)"/>
       <path d="M 2059 -325 
Q 1816 -950 1584 -1140 
Q 1353 -1331 966 -1331 
L 506 -1331 
L 506 -850 
L 844 -850 
Q 1081 -850 1212 -737 
Q 1344 -625 1503 -206 
L 1606 56 
L 191 3500 
L 800 3500 
L 1894 763 
L 2988 3500 
L 3597 3500 
L 2059 -325 
z
" id="DejaVuSans-79" transform="scale(0.015625)"/>
       <path d="M 1959 3097 
Q 1497 3097 1228 2736 
Q 959 2375 959 1747 
Q 959 1119 1226 758 
Q 1494 397 1959 397 
Q 2419 397 2687 759 
Q 2956 1122 2956 1747 
Q 2956 2369 2687 2733 
Q 2419 3097 1959 3097 
z
M 1959 3584 
Q 2709 3584 3137 3096 
Q 3566 2609 3566 1747 
Q 3566 888 3137 398 
Q 2709 -91 1959 -91 
Q 1206 -91 779 398 
Q 353 888 353 1747 
Q 353 2609 779 3096 
Q 1206 3584 1959 3584 
z
" id="DejaVuSans-6f" transform="scale(0.015625)"/>
       <path d="M 1259 4147 
L 1259 519 
L 2022 519 
Q 2988 519 3436 956 
Q 3884 1394 3884 2338 
Q 3884 3275 3436 3711 
Q 2988 4147 2022 4147 
L 1259 4147 
z
M 628 4666 
L 1925 4666 
Q 3281 4666 3915 4102 
Q 4550 3538 4550 2338 
Q 4550 1131 3912 565 
Q 3275 0 1925 0 
L 628 0 
L 628 4666 
z
" id="DejaVuSans-44" transform="scale(0.015625)"/>
      </defs>
      <use xlink:href="#DejaVuSans-4d"/>
      <use x="86.279297" xlink:href="#DejaVuSans-79"/>
      <use x="145.458984" xlink:href="#DejaVuSans-6f"/>
      <use x="206.640625" xlink:href="#DejaVuSans-44"/>
     </g>
    </g>
    <g id="line2d_17">
     <path d="M 593.77955 95.709375 
L 633.77955 95.709375 
" style="fill:none;stroke:#ff4c4c;stroke-linecap:square;stroke-width:3;"/>
    </g>
    <g id="line2d_18"/>
    <g id="text_7">
     <!-- Dll1 -->
     <g transform="translate(649.77955 102.709375)scale(0.2 -0.2)">
      <defs>
       <path d="M 603 4863 
L 1178 4863 
L 1178 0 
L 603 0 
L 603 4863 
z
" id="DejaVuSans-6c" transform="scale(0.015625)"/>
      </defs>
      <use xlink:href="#DejaVuSans-44"/>
      <use x="77.001953" xlink:href="#DejaVuSans-6c"/>
      <use x="104.785156" xlink:href="#DejaVuSans-6c"/>
      <use x="132.568359" xlink:href="#DejaVuSans-31"/>
     </g>
    </g>
   </g>
  </g>
 </g>
 <defs>
  <clipPath id="pf3d62c5440">
   <rect height="239.96" width="582.14" x="14.3" y="10.8"/>
  </clipPath>
 </defs>
</svg>
