<?xml version="1.0" encoding="utf-8" standalone="no"?>
<!DOCTYPE svg PUBLIC "-//W3C//DTD SVG 1.1//EN"
  "http://www.w3.org/Graphics/SVG/1.1/DTD/svg11.dtd">
<svg height="720pt" version="1.1" viewBox="0 0 504 720" width="504pt" xmlns="http://www.w3.org/2000/svg" xmlns:xlink="http://www.w3.org/1999/xlink">
 <metadata>
  <rdf:RDF xmlns:cc="http://creativecommons.org/ns#" xmlns:dc="http://purl.org/dc/elements/1.1/" xmlns:rdf="http://www.w3.org/1999/02/22-rdf-syntax-ns#">
   <cc:Work>
    <dc:type rdf:resource="http://purl.org/dc/dcmitype/StillImage"/>
    <dc:date>2022-04-08T14:25:22.107187</dc:date>
    <dc:format>image/svg+xml</dc:format>
    <dc:creator>
     <cc:Agent>
      <dc:title>Matplotlib v3.4.3, https://matplotlib.org/</dc:title>
     </cc:Agent>
    </dc:creator>
   </cc:Work>
  </rdf:RDF>
 </metadata>
 <defs>
  <style type="text/css">*{stroke-linecap:butt;stroke-linejoin:round;}</style>
 </defs>
 <g id="figure_1">
  <g id="patch_1">
   <path d="M 0 720 
L 504 720 
L 504 0 
L 0 0 
z
" style="fill:#ffffff;"/>
  </g>
  <g id="axes_1">
   <g id="patch_2">
    <path d="M 14.3 242.523137 
L 425.08 242.523137 
L 425.08 41.564706 
L 14.3 41.564706 
z
" style="fill:#ffffff;"/>
   </g>
   <g id="matplotlib.axis_1">
    <g id="xtick_1">
     <g id="line2d_1">
      <defs>
       <path d="M 0 0 
L 0 3.5 
" id="m69e99f70bd" style="stroke:#000000;stroke-width:0.8;"/>
      </defs>
      <g>
       <use style="stroke:#000000;stroke-width:0.8;" x="15.21082" xlink:href="#m69e99f70bd" y="242.523137"/>
      </g>
     </g>
    </g>
    <g id="xtick_2">
     <g id="line2d_2">
      <g>
       <use style="stroke:#000000;stroke-width:0.8;" x="60.75184" xlink:href="#m69e99f70bd" y="242.523137"/>
      </g>
     </g>
    </g>
    <g id="xtick_3">
     <g id="line2d_3">
      <g>
       <use style="stroke:#000000;stroke-width:0.8;" x="106.29286" xlink:href="#m69e99f70bd" y="242.523137"/>
      </g>
     </g>
    </g>
    <g id="xtick_4">
     <g id="line2d_4">
      <g>
       <use style="stroke:#000000;stroke-width:0.8;" x="151.83388" xlink:href="#m69e99f70bd" y="242.523137"/>
      </g>
     </g>
    </g>
    <g id="xtick_5">
     <g id="line2d_5">
      <g>
       <use style="stroke:#000000;stroke-width:0.8;" x="197.3749" xlink:href="#m69e99f70bd" y="242.523137"/>
      </g>
     </g>
    </g>
    <g id="xtick_6">
     <g id="line2d_6">
      <g>
       <use style="stroke:#000000;stroke-width:0.8;" x="242.91592" xlink:href="#m69e99f70bd" y="242.523137"/>
      </g>
     </g>
    </g>
    <g id="xtick_7">
     <g id="line2d_7">
      <g>
       <use style="stroke:#000000;stroke-width:0.8;" x="288.45694" xlink:href="#m69e99f70bd" y="242.523137"/>
      </g>
     </g>
    </g>
    <g id="xtick_8">
     <g id="line2d_8">
      <g>
       <use style="stroke:#000000;stroke-width:0.8;" x="333.99796" xlink:href="#m69e99f70bd" y="242.523137"/>
      </g>
     </g>
    </g>
    <g id="xtick_9">
     <g id="line2d_9">
      <g>
       <use style="stroke:#000000;stroke-width:0.8;" x="379.53898" xlink:href="#m69e99f70bd" y="242.523137"/>
      </g>
     </g>
    </g>
    <g id="xtick_10">
     <g id="line2d_10">
      <g>
       <use style="stroke:#000000;stroke-width:0.8;" x="425.08" xlink:href="#m69e99f70bd" y="242.523137"/>
      </g>
     </g>
    </g>
   </g>
   <g id="matplotlib.axis_2"/>
   <g id="line2d_11">
    <path clip-path="url(#p5acec5dfb5)" d="M -1 219.03003 
L -0.273126 219.373577 
L 0.637694 218.828361 
L 1.548514 217.263451 
L 2.459335 214.628723 
L 3.370155 210.871505 
L 4.280976 205.941611 
L 5.191796 199.798086 
L 6.102616 192.4178 
L 7.013437 183.805897 
L 8.835078 163.121978 
L 10.656718 138.82017 
L 13.38918 100.863264 
L 14.3 89.604347 
L 15.21082 79.904008 
L 16.121641 72.238209 
L 17.032461 66.974818 
L 17.943282 64.319616 
L 18.854102 64.285299 
L 19.764922 66.695703 
L 20.675743 71.224874 
L 21.586563 77.457189 
L 23.408204 93.278612 
L 27.962306 136.660476 
L 29.783947 151.395416 
L 31.605588 163.587311 
L 32.516408 168.644427 
L 33.427228 172.981892 
L 34.338049 176.585341 
L 35.248869 179.442837 
L 36.15969 181.543779 
L 37.07051 182.878447 
L 37.98133 183.438169 
L 38.892151 183.216056 
L 39.802971 182.208337 
L 40.713792 180.41626 
L 41.624612 177.848556 
L 42.535432 174.524391 
L 43.446253 170.476697 
L 44.357073 165.755691 
L 46.178714 154.601008 
L 51.643636 117.317101 
L 52.554457 112.472578 
L 53.465277 108.520161 
L 54.376098 105.593292 
L 55.286918 103.777264 
L 56.197738 103.102884 
L 57.108559 103.545793 
L 58.019379 105.031529 
L 58.9302 107.445207 
L 59.84102 110.643882 
L 61.662661 118.760042 
L 68.038404 150.466946 
L 69.860044 157.262354 
L 70.770865 160.0018 
L 71.681685 162.263647 
L 72.592506 164.027142 
L 73.503326 165.277336 
L 74.414146 166.004765 
L 75.324967 166.20546 
L 76.235787 165.881249 
L 77.146608 165.040326 
L 78.057428 163.698029 
L 78.968248 161.877756 
L 79.879069 159.611932 
L 80.789889 156.942911 
L 82.61153 150.618185 
L 88.076452 129.539619 
L 88.987273 126.717375 
L 89.898093 124.335985 
L 90.808914 122.462182 
L 91.719734 121.143712 
L 92.630554 120.406958 
L 93.541375 120.256059 
L 94.452195 120.673595 
L 95.363016 121.622713 
L 96.273836 123.05036 
L 97.184656 124.89121 
L 99.006297 129.514528 
L 101.738758 137.644965 
L 104.47122 145.538133 
L 106.29286 149.941671 
L 107.203681 151.767959 
L 108.114501 153.306484 
L 109.025322 154.536577 
L 109.936142 155.443205 
L 110.846962 156.016814 
L 111.757783 156.253264 
L 112.668603 156.153861 
L 113.579424 155.72544 
L 114.490244 154.980514 
L 115.401064 153.937413 
L 116.311885 152.620397 
L 118.133525 149.291299 
L 119.955166 145.302724 
L 123.598448 136.937927 
L 125.420089 133.420288 
L 126.330909 131.998729 
L 127.241729 130.851605 
L 128.15255 130.005181 
L 129.06337 129.475747 
L 129.974191 129.269186 
L 130.885011 129.381079 
L 131.795831 129.797329 
L 132.706652 130.495225 
L 133.617472 131.444829 
L 135.439113 133.952925 
L 137.260754 136.999056 
L 140.904035 143.376711 
L 142.725676 146.124144 
L 144.547317 148.278226 
L 145.458137 149.084847 
L 146.368958 149.693844 
L 147.279778 150.097354 
L 148.190599 150.291619 
L 149.101419 150.276966 
L 150.012239 150.057782 
L 150.92306 149.642465 
L 151.83388 149.043338 
L 152.744701 148.276526 
L 154.566341 146.322053 
L 156.387982 143.974223 
L 160.031264 139.048737 
L 161.852905 136.961858 
L 162.763725 136.107751 
L 163.674545 135.407484 
L 164.585366 134.876059 
L 165.496186 134.523362 
L 166.407007 134.353943 
L 167.317827 134.367022 
L 168.228647 134.556702 
L 169.139468 134.912375 
L 170.050288 135.419289 
L 171.871929 136.811244 
L 173.69357 138.558852 
L 178.247672 143.228896 
L 180.069313 144.760304 
L 181.890953 145.899388 
L 182.801774 146.295408 
L 183.712594 146.567093 
L 184.623415 146.711413 
L 185.534235 146.728104 
L 186.445055 146.61963 
L 188.266696 146.050174 
L 190.088337 145.073475 
L 191.909978 143.794624 
L 198.285721 138.919201 
L 200.107361 137.974313 
L 201.929002 137.4126 
L 203.750643 137.27101 
L 205.572284 137.540751 
L 207.393925 138.171222 
L 209.215565 139.078824 
L 212.858847 141.297514 
L 215.591308 142.877861 
L 217.412949 143.710873 
L 219.23459 144.287544 
L 221.056231 144.568766 
L 222.877871 144.543464 
L 224.699512 144.228204 
L 226.521153 143.664904 
L 229.253614 142.497292 
L 233.807716 140.375843 
L 235.629357 139.705926 
L 237.450998 139.235693 
L 239.272639 139.001474 
L 241.094279 139.014066 
L 242.91592 139.258949 
L 244.737561 139.699382 
L 247.470022 140.606408 
L 252.934945 142.504284 
L 254.756585 142.94499 
L 256.578226 143.221375 
L 258.399867 143.316194 
L 260.221508 143.229573 
L 262.953969 142.800032 
L 266.597251 141.860284 
L 271.151353 140.640466 
L 273.883814 140.159464 
L 276.616275 139.984079 
L 279.348736 140.128365 
L 282.081197 140.53662 
L 292.100222 142.411401 
L 294.832683 142.553736 
L 297.565144 142.453969 
L 301.208426 142.016296 
L 309.405809 140.776743 
L 312.138271 140.596937 
L 314.870732 140.607701 
L 318.514013 140.883986 
L 329.443858 142.053126 
L 333.08714 142.082059 
L 336.730421 141.87659 
L 348.571086 140.944578 
L 352.214368 140.966883 
L 356.76847 141.223316 
L 365.876674 141.798789 
L 370.430776 141.806596 
L 375.895698 141.560615 
L 384.093082 141.165955 
L 389.558004 141.17553 
L 397.755388 141.507435 
L 404.131131 141.670926 
L 410.506874 141.577869 
L 423.258359 141.261057 
L 425.08 141.270128 
L 425.08 141.270128 
" style="fill:none;stroke:#0066ff;stroke-linecap:square;stroke-width:3;"/>
   </g>
   <g id="line2d_12">
    <path clip-path="url(#p5acec5dfb5)" d="M -1 199.439755 
L 0.637694 210.732216 
L 2.459335 220.813875 
L 3.370155 224.877948 
L 4.280976 228.263062 
L 5.191796 230.934519 
L 6.102616 232.845462 
L 7.013437 233.937578 
L 7.924257 234.14392 
L 8.835078 233.394492 
L 9.745898 231.624978 
L 10.656718 228.788455 
L 11.567539 224.869102 
L 12.478359 219.896042 
L 13.38918 213.954769 
L 15.21082 199.821963 
L 18.854102 169.866236 
L 19.764922 163.72333 
L 20.675743 158.595048 
L 21.586563 154.616318 
L 22.497384 151.853481 
L 23.408204 150.309713 
L 24.319024 149.935285 
L 25.229845 150.640086 
L 26.140665 152.306332 
L 27.051486 154.800077 
L 27.962306 157.980792 
L 29.783947 165.850479 
L 32.516408 179.577773 
L 35.248869 193.285453 
L 37.07051 201.493737 
L 38.892151 208.511447 
L 39.802971 211.480687 
L 40.713792 214.046446 
L 41.624612 216.178071 
L 42.535432 217.846154 
L 43.446253 219.022746 
L 44.357073 219.682171 
L 45.267894 219.802544 
L 46.178714 219.367962 
L 47.089534 218.371298 
L 48.000355 216.817366 
L 48.911175 214.726128 
L 49.821996 212.135462 
L 51.643636 205.706463 
L 57.108559 183.838396 
L 58.019379 181.038805 
L 58.9302 178.735362 
L 59.84102 176.979106 
L 60.75184 175.797009 
L 61.662661 175.193142 
L 62.573481 175.151166 
L 63.484302 175.637687 
L 64.395122 176.606019 
L 65.305942 177.999939 
L 66.216763 179.757182 
L 68.038404 184.100003 
L 70.770865 191.726745 
L 73.503326 199.330813 
L 75.324967 203.773708 
L 77.146608 207.38159 
L 78.057428 208.801298 
L 78.968248 209.933884 
L 79.879069 210.760693 
L 80.789889 211.267179 
L 81.70071 211.443503 
L 82.61153 211.28529 
L 83.52235 210.794496 
L 84.433171 209.980281 
L 85.343991 208.859786 
L 86.254812 207.45867 
L 88.076452 203.96037 
L 90.808914 197.716987 
L 92.630554 193.57817 
L 94.452195 190.00865 
L 95.363016 188.560142 
L 96.273836 187.38407 
L 97.184656 186.503832 
L 98.095477 185.932163 
L 99.006297 185.671479 
L 99.917118 185.714677 
L 100.827938 186.046294 
L 101.738758 186.643875 
L 102.649579 187.479435 
L 103.560399 188.520913 
L 105.38204 191.080987 
L 108.114501 195.567584 
L 110.846962 200.000837 
L 112.668603 202.528709 
L 114.490244 204.494162 
L 115.401064 205.221224 
L 116.311885 205.760268 
L 117.222705 206.102416 
L 118.133525 206.242536 
L 119.044346 206.179506 
L 119.955166 205.916463 
L 120.865987 205.461004 
L 121.776807 204.825295 
L 123.598448 203.08438 
L 125.420089 200.877452 
L 129.974191 194.930257 
L 131.795831 193.040924 
L 132.706652 192.304649 
L 133.617472 191.729217 
L 134.528293 191.324554 
L 135.439113 191.095289 
L 136.349933 191.040932 
L 137.260754 191.156233 
L 138.171574 191.431688 
L 139.082395 191.854134 
L 140.904035 193.072989 
L 142.725676 194.659301 
L 149.101419 200.665249 
L 150.92306 201.888598 
L 152.744701 202.690977 
L 153.655521 202.915785 
L 154.566341 203.018143 
L 155.477162 202.997721 
L 156.387982 202.856916 
L 158.209623 202.237364 
L 160.031264 201.231952 
L 161.852905 199.950317 
L 167.317827 195.855498 
L 169.139468 194.867186 
L 170.961109 194.236413 
L 172.782749 194.004986 
L 174.60439 194.170448 
L 176.426031 194.690748 
L 178.247672 195.492864 
L 180.980133 197.017165 
L 184.623415 199.109962 
L 186.445055 199.969302 
L 188.266696 200.605073 
L 190.088337 200.970007 
L 191.909978 201.042272 
L 193.731619 200.826902 
L 195.553259 200.355293 
L 198.285721 199.292737 
L 203.750643 196.868928 
L 205.572284 196.266678 
L 207.393925 195.867817 
L 209.215565 195.700175 
L 211.037206 195.766668 
L 212.858847 196.046985 
L 215.591308 196.778014 
L 223.788692 199.38424 
L 225.610333 199.700411 
L 227.431973 199.846907 
L 229.253614 199.817746 
L 231.075255 199.623399 
L 233.807716 199.081681 
L 242.91592 196.908298 
L 245.648381 196.683797 
L 248.380843 196.767379 
L 251.113304 197.116119 
L 255.667406 198.017064 
L 259.310687 198.702146 
L 262.043149 199.031815 
L 264.77561 199.137842 
L 267.508071 199.014024 
L 271.151353 198.569166 
L 279.348736 197.405056 
L 282.081197 197.258917 
L 284.813659 197.294996 
L 288.45694 197.583678 
L 298.475965 198.636632 
L 302.119246 198.701595 
L 305.762528 198.534299 
L 319.424834 197.589188 
L 323.978936 197.720456 
L 337.641242 198.452546 
L 342.195344 198.356925 
L 356.76847 197.79046 
L 362.233392 197.925665 
L 374.074058 198.300116 
L 380.4498 198.198674 
L 393.201286 197.90738 
L 401.39867 198.051985 
L 411.417694 198.210066 
L 420.525898 198.082406 
L 425.08 198.004735 
L 425.08 198.004735 
" style="fill:none;stroke:#ff6600;stroke-linecap:square;stroke-width:3;"/>
   </g>
   <g id="patch_3">
    <path d="M 14.3 242.523137 
L 14.3 41.564706 
" style="fill:none;stroke:#000000;stroke-linecap:square;stroke-linejoin:miter;stroke-width:0.8;"/>
   </g>
   <g id="patch_4">
    <path d="M 14.3 242.523137 
L 425.08 242.523137 
" style="fill:none;stroke:#000000;stroke-linecap:square;stroke-linejoin:miter;stroke-width:0.8;"/>
   </g>
   <g id="legend_1">
    <g id="patch_5">
     <path d="M 417.3985 66.037598 
L 493.236 66.037598 
Q 497.236 66.037598 497.236 62.037598 
L 497.236 5.325098 
Q 497.236 1.325098 493.236 1.325098 
L 417.3985 1.325098 
Q 413.3985 1.325098 413.3985 5.325098 
L 413.3985 62.037598 
Q 413.3985 66.037598 417.3985 66.037598 
z
" style="fill:#ffffff;opacity:0.8;stroke:#cccccc;stroke-linejoin:miter;"/>
    </g>
    <g id="line2d_13">
     <path d="M 421.3985 17.521973 
L 461.3985 17.521973 
" style="fill:none;stroke:#0066ff;stroke-linecap:square;stroke-width:3;"/>
    </g>
    <g id="line2d_14"/>
    <g id="text_1">
     <!-- x -->
     <g transform="translate(477.3985 24.521973)scale(0.2 -0.2)">
      <defs>
       <path d="M 3513 3500 
L 2247 1797 
L 3578 0 
L 2900 0 
L 1881 1375 
L 863 0 
L 184 0 
L 1544 1831 
L 300 3500 
L 978 3500 
L 1906 2253 
L 2834 3500 
L 3513 3500 
z
" id="DejaVuSans-78" transform="scale(0.015625)"/>
      </defs>
      <use xlink:href="#DejaVuSans-78"/>
     </g>
    </g>
    <g id="line2d_15">
     <path d="M 421.3985 46.878223 
L 461.3985 46.878223 
" style="fill:none;stroke:#ff6600;stroke-linecap:square;stroke-width:3;"/>
    </g>
    <g id="line2d_16"/>
    <g id="text_2">
     <!-- y -->
     <g transform="translate(477.3985 53.878223)scale(0.2 -0.2)">
      <defs>
       <path d="M 2059 -325 
Q 1816 -950 1584 -1140 
Q 1353 -1331 966 -1331 
L 506 -1331 
L 506 -850 
L 844 -850 
Q 1081 -850 1212 -737 
Q 1344 -625 1503 -206 
L 1606 56 
L 191 3500 
L 800 3500 
L 1894 763 
L 2988 3500 
L 3597 3500 
L 2059 -325 
z
" id="DejaVuSans-79" transform="scale(0.015625)"/>
      </defs>
      <use xlink:href="#DejaVuSans-79"/>
     </g>
    </g>
   </g>
  </g>
  <g id="axes_2">
   <g id="patch_6">
    <path d="M 14.3 457.781569 
L 425.08 457.781569 
L 425.08 256.823137 
L 14.3 256.823137 
z
" style="fill:#ffffff;"/>
   </g>
   <g id="matplotlib.axis_3">
    <g id="xtick_11">
     <g id="line2d_17">
      <g>
       <use style="stroke:#000000;stroke-width:0.8;" x="15.21082" xlink:href="#m69e99f70bd" y="457.781569"/>
      </g>
     </g>
    </g>
    <g id="xtick_12">
     <g id="line2d_18">
      <g>
       <use style="stroke:#000000;stroke-width:0.8;" x="60.75184" xlink:href="#m69e99f70bd" y="457.781569"/>
      </g>
     </g>
    </g>
    <g id="xtick_13">
     <g id="line2d_19">
      <g>
       <use style="stroke:#000000;stroke-width:0.8;" x="106.29286" xlink:href="#m69e99f70bd" y="457.781569"/>
      </g>
     </g>
    </g>
    <g id="xtick_14">
     <g id="line2d_20">
      <g>
       <use style="stroke:#000000;stroke-width:0.8;" x="151.83388" xlink:href="#m69e99f70bd" y="457.781569"/>
      </g>
     </g>
    </g>
    <g id="xtick_15">
     <g id="line2d_21">
      <g>
       <use style="stroke:#000000;stroke-width:0.8;" x="197.3749" xlink:href="#m69e99f70bd" y="457.781569"/>
      </g>
     </g>
    </g>
    <g id="xtick_16">
     <g id="line2d_22">
      <g>
       <use style="stroke:#000000;stroke-width:0.8;" x="242.91592" xlink:href="#m69e99f70bd" y="457.781569"/>
      </g>
     </g>
    </g>
    <g id="xtick_17">
     <g id="line2d_23">
      <g>
       <use style="stroke:#000000;stroke-width:0.8;" x="288.45694" xlink:href="#m69e99f70bd" y="457.781569"/>
      </g>
     </g>
    </g>
    <g id="xtick_18">
     <g id="line2d_24">
      <g>
       <use style="stroke:#000000;stroke-width:0.8;" x="333.99796" xlink:href="#m69e99f70bd" y="457.781569"/>
      </g>
     </g>
    </g>
    <g id="xtick_19">
     <g id="line2d_25">
      <g>
       <use style="stroke:#000000;stroke-width:0.8;" x="379.53898" xlink:href="#m69e99f70bd" y="457.781569"/>
      </g>
     </g>
    </g>
    <g id="xtick_20">
     <g id="line2d_26">
      <g>
       <use style="stroke:#000000;stroke-width:0.8;" x="425.08" xlink:href="#m69e99f70bd" y="457.781569"/>
      </g>
     </g>
    </g>
   </g>
   <g id="matplotlib.axis_4"/>
   <g id="line2d_27">
    <path clip-path="url(#pdf7c588814)" d="M -1 374.468843 
L 0.637694 385.867487 
L 2.459335 396.406479 
L 4.280976 405.104192 
L 6.102616 412.27271 
L 7.924257 418.167093 
L 9.745898 422.998986 
L 11.567539 426.944074 
L 13.38918 430.145355 
L 15.21082 432.716587 
L 17.032461 434.744911 
L 18.854102 436.292284 
L 20.675743 437.395484 
L 22.497384 438.064385 
L 23.408204 438.230826 
L 24.319024 438.278209 
L 25.229845 438.198162 
L 26.140665 437.979524 
L 27.051486 437.608048 
L 27.962306 437.066093 
L 28.873126 436.332325 
L 29.783947 435.381468 
L 30.694767 434.184142 
L 31.605588 432.706866 
L 32.516408 430.912288 
L 33.427228 428.759756 
L 34.338049 426.206304 
L 35.248869 423.20817 
L 36.15969 419.72288 
L 37.07051 415.711909 
L 37.98133 411.143808 
L 39.802971 400.266115 
L 41.624612 387.1037 
L 43.446253 371.957526 
L 46.178714 346.855525 
L 49.821996 313.258874 
L 51.643636 298.349423 
L 53.465277 285.908856 
L 54.376098 280.981323 
L 55.286918 277.185295 
L 56.197738 274.784125 
L 57.108559 274.072671 
L 58.019379 275.318643 
L 58.9302 278.666462 
L 59.84102 284.047456 
L 60.75184 291.161177 
L 62.573481 308.712388 
L 66.216763 345.732604 
L 68.038404 361.832212 
L 69.860044 375.734385 
L 71.681685 387.528525 
L 73.503326 397.432214 
L 75.324967 405.694757 
L 77.146608 412.555994 
L 78.968248 418.230291 
L 80.789889 422.902112 
L 82.61153 426.726491 
L 84.433171 429.830877 
L 86.254812 432.316875 
L 88.076452 434.261374 
L 89.898093 435.716731 
L 91.719734 436.709673 
L 92.630554 437.033449 
L 93.541375 437.238565 
L 94.452195 437.319613 
L 95.363016 437.268714 
L 96.273836 437.075253 
L 97.184656 436.725606 
L 98.095477 436.202844 
L 99.006297 435.486464 
L 99.917118 434.552161 
L 100.827938 433.371689 
L 101.738758 431.912877 
L 102.649579 430.139866 
L 103.560399 428.013668 
L 104.47122 425.493122 
L 105.38204 422.536339 
L 106.29286 419.102696 
L 107.203681 415.155355 
L 108.114501 410.66424 
L 109.936142 399.983484 
L 111.757783 387.073232 
L 113.579424 372.22186 
L 116.311885 347.597004 
L 119.955166 314.616342 
L 121.776807 300.004979 
L 123.598448 287.880244 
L 124.509268 283.124391 
L 125.420089 279.508815 
L 126.330909 277.289082 
L 127.241729 276.742773 
L 128.15255 278.111831 
L 129.06337 281.514399 
L 129.974191 286.867385 
L 130.885011 293.875147 
L 132.706652 311.066235 
L 136.349933 347.302872 
L 138.171574 363.094406 
L 139.993215 376.747513 
L 141.814856 388.341493 
L 143.636497 398.084174 
L 145.458137 406.216742 
L 147.279778 412.972542 
L 149.101419 418.56079 
L 150.92306 423.161834 
L 152.744701 426.927335 
L 154.566341 429.981886 
L 156.387982 432.424573 
L 158.209623 434.329944 
L 160.031264 435.748034 
L 161.852905 436.7031 
L 162.763725 437.006849 
L 163.674545 437.190693 
L 164.585366 437.24879 
L 165.496186 437.172778 
L 166.407007 436.951513 
L 167.317827 436.570791 
L 168.228647 436.013056 
L 169.139468 435.257139 
L 170.050288 434.278043 
L 170.961109 433.046831 
L 171.871929 431.530685 
L 172.782749 429.693194 
L 173.69357 427.494982 
L 174.60439 424.894754 
L 175.515211 421.850842 
L 176.426031 418.323289 
L 177.336851 414.276468 
L 179.158492 404.522507 
L 180.980133 392.507936 
L 182.801774 378.405271 
L 185.534235 354.403723 
L 190.088337 313.210563 
L 191.909978 298.82218 
L 192.820798 292.530223 
L 193.731619 287.026678 
L 194.642439 282.489915 
L 195.553259 279.140868 
L 196.46408 277.241325 
L 197.3749 277.066168 
L 198.285721 278.838456 
L 199.196541 282.639759 
L 200.107361 288.342679 
L 201.018182 295.616715 
L 202.839823 313.054427 
L 205.572284 340.525276 
L 207.393925 357.107879 
L 209.215565 371.602274 
L 211.037206 383.986096 
L 212.858847 394.43075 
L 214.680488 403.170412 
L 216.502129 410.443964 
L 218.323769 416.470901 
L 220.14541 421.442973 
L 221.967051 425.522922 
L 223.788692 428.845773 
L 225.610333 431.5205 
L 227.431973 433.631262 
L 229.253614 435.237836 
L 231.075255 436.374903 
L 232.896896 437.049811 
L 233.807716 437.207818 
L 234.718537 437.2385 
L 235.629357 437.132933 
L 236.540177 436.879353 
L 237.450998 436.462873 
L 238.361818 435.865199 
L 239.272639 435.064372 
L 240.183459 434.034573 
L 241.094279 432.746039 
L 242.0051 431.165167 
L 242.91592 429.254861 
L 243.826741 426.975249 
L 244.737561 424.284821 
L 245.648381 421.14209 
L 246.559202 417.507792 
L 247.470022 413.347602 
L 249.291663 403.355615 
L 251.113304 391.108507 
L 252.934945 376.808668 
L 255.667406 352.637857 
L 259.310687 319.386655 
L 261.132328 304.252611 
L 262.953969 291.306602 
L 263.864789 285.992454 
L 264.77561 281.688138 
L 265.68643 278.623983 
L 266.597251 277.067956 
L 267.508071 277.290515 
L 268.418891 279.49225 
L 269.329712 283.714132 
L 270.240532 289.782297 
L 271.151353 297.331999 
L 272.972993 315.025845 
L 275.705455 342.379937 
L 277.527095 358.751396 
L 279.348736 373.016909 
L 281.170377 385.184311 
L 282.992018 395.436046 
L 284.813659 404.008658 
L 286.635299 411.139697 
L 288.45694 417.04591 
L 290.278581 421.915936 
L 292.100222 425.909485 
L 293.921863 429.158731 
L 295.743503 431.769959 
L 297.565144 433.82473 
L 299.386785 435.380211 
L 301.208426 436.468308 
L 303.030067 437.09326 
L 303.940887 437.2248 
L 304.851707 437.227339 
L 305.762528 437.09137 
L 306.673348 436.80449 
L 307.584169 436.35111 
L 308.494989 435.712176 
L 309.405809 434.864922 
L 310.31663 433.782692 
L 311.22745 432.434892 
L 312.138271 430.787133 
L 313.049091 428.801659 
L 313.959911 426.438136 
L 314.870732 423.654904 
L 315.781552 420.410746 
L 316.692373 416.667209 
L 317.603193 412.391407 
L 319.424834 402.158267 
L 321.246475 389.678183 
L 323.068115 375.183926 
L 325.800576 350.852964 
L 329.443858 317.700782 
L 331.265499 302.754769 
L 333.08714 290.101971 
L 333.99796 284.985775 
L 334.90878 280.924678 
L 335.819601 278.158265 
L 336.730421 276.959229 
L 337.641242 277.590351 
L 338.552062 280.225511 
L 339.462882 284.862296 
L 340.373703 291.281293 
L 342.195344 307.810708 
L 345.838625 344.215729 
L 347.660266 360.372418 
L 349.481907 374.409601 
L 351.303548 386.36275 
L 353.125188 396.424169 
L 354.946829 404.832273 
L 356.76847 411.823082 
L 358.590111 417.610533 
L 360.411752 422.38016 
L 362.233392 426.288658 
L 364.055033 429.465374 
L 365.876674 432.013916 
L 367.698315 434.01325 
L 369.519956 435.517919 
L 371.341596 436.55703 
L 373.163237 437.131657 
L 374.074058 437.236392 
L 374.984878 437.210331 
L 375.895698 437.043374 
L 376.806519 436.722463 
L 377.717339 436.231294 
L 378.62816 435.550042 
L 379.53898 434.655125 
L 380.4498 433.519045 
L 381.360621 432.110382 
L 382.271441 430.393983 
L 383.182262 428.331462 
L 384.093082 425.882082 
L 385.003902 423.004109 
L 385.914723 419.656703 
L 386.825543 415.802347 
L 387.736364 411.40974 
L 389.558004 400.934796 
L 391.379645 388.224136 
L 393.201286 373.541121 
L 395.933747 349.062884 
L 399.577029 316.029059 
L 401.39867 301.281234 
L 403.22031 288.934697 
L 404.131131 284.025308 
L 405.041951 280.218353 
L 405.952772 277.762249 
L 406.863592 276.932499 
L 407.774412 277.980537 
L 408.685233 281.049342 
L 409.596053 286.091109 
L 410.506874 292.842844 
L 412.328514 309.742562 
L 415.971796 346.030898 
L 417.793437 361.969219 
L 419.615078 375.778701 
L 421.436718 387.51987 
L 423.258359 397.393707 
L 425.08 405.639981 
L 425.08 405.639981 
" style="fill:none;stroke:#0066ff;stroke-linecap:square;stroke-width:3;"/>
   </g>
   <g id="line2d_28">
    <path clip-path="url(#pdf7c588814)" d="M -1 320.554979 
L 6.102616 371.43252 
L 7.924257 382.515476 
L 9.745898 392.353372 
L 11.567539 400.941802 
L 13.38918 408.342539 
L 15.21082 414.654682 
L 17.032461 419.994203 
L 18.854102 424.48042 
L 20.675743 428.227573 
L 22.497384 431.339845 
L 24.319024 433.908396 
L 26.140665 436.009126 
L 27.962306 437.699815 
L 29.783947 439.014881 
L 31.605588 439.955303 
L 32.516408 440.27195 
L 33.427228 440.470547 
L 34.338049 440.532035 
L 35.248869 440.430073 
L 36.15969 440.129919 
L 37.07051 439.587701 
L 37.98133 438.750459 
L 38.892151 437.557442 
L 39.802971 435.943061 
L 40.713792 433.841712 
L 41.624612 431.194194 
L 42.535432 427.954924 
L 43.446253 424.098662 
L 44.357073 419.625324 
L 46.178714 408.960447 
L 48.000355 396.452977 
L 51.643636 368.864518 
L 54.376098 348.761534 
L 56.197738 336.768968 
L 58.019379 326.577872 
L 58.9302 322.367586 
L 59.84102 318.869483 
L 60.75184 316.169973 
L 61.662661 314.339887 
L 62.573481 313.42632 
L 63.484302 313.447919 
L 64.395122 314.393709 
L 65.305942 316.224682 
L 66.216763 318.877276 
L 67.127583 322.268032 
L 68.038404 326.298945 
L 69.860044 335.849862 
L 72.592506 352.28477 
L 76.235787 374.40766 
L 78.057428 384.504717 
L 79.879069 393.642942 
L 81.70071 401.743303 
L 83.52235 408.808872 
L 85.343991 414.894294 
L 87.165632 420.08277 
L 88.987273 424.469902 
L 90.808914 428.152959 
L 92.630554 431.22403 
L 94.452195 433.765597 
L 96.273836 435.847196 
L 98.095477 437.521741 
L 99.917118 438.819728 
L 101.738758 439.738954 
L 102.649579 440.042733 
L 103.560399 440.226778 
L 104.47122 440.272136 
L 105.38204 440.152856 
L 106.29286 439.834962 
L 107.203681 439.275812 
L 108.114501 438.424196 
L 109.025322 437.221607 
L 109.936142 435.605064 
L 110.846962 433.511668 
L 111.757783 430.884641 
L 112.668603 427.680124 
L 113.579424 423.873548 
L 114.490244 419.464269 
L 116.311885 408.962837 
L 118.133525 396.646476 
L 121.776807 369.438445 
L 124.509268 349.587522 
L 126.330909 337.757216 
L 128.15255 327.735643 
L 129.06337 323.613342 
L 129.974191 320.203517 
L 130.885011 317.590099 
L 131.795831 315.841126 
L 132.706652 315.001025 
L 133.617472 315.086119 
L 134.528293 316.083534 
L 135.439113 317.952803 
L 136.349933 320.629367 
L 137.260754 324.029272 
L 138.171574 328.05455 
L 139.993215 337.552532 
L 142.725676 353.824356 
L 146.368958 375.647507 
L 148.190599 385.587986 
L 150.012239 394.576693 
L 151.83388 402.539385 
L 153.655521 409.481522 
L 155.477162 415.458425 
L 157.298803 420.552857 
L 159.120443 424.859314 
L 160.942084 428.473598 
L 162.763725 431.486151 
L 164.585366 433.977691 
L 166.407007 436.015836 
L 168.228647 437.651241 
L 170.050288 438.911453 
L 171.871929 439.790014 
L 172.782749 440.070484 
L 173.69357 440.227875 
L 174.60439 440.241965 
L 175.515211 440.085336 
L 176.426031 439.722412 
L 177.336851 439.108934 
L 178.247672 438.192261 
L 179.158492 436.912909 
L 180.069313 435.207707 
L 180.980133 433.014648 
L 181.890953 430.279128 
L 182.801774 426.960726 
L 183.712594 423.039311 
L 184.623415 418.519195 
L 186.445055 407.82691 
L 188.266696 395.383468 
L 195.553259 342.403209 
L 197.3749 331.591358 
L 198.285721 326.968781 
L 199.196541 322.986119 
L 200.107361 319.733167 
L 201.018182 317.291257 
L 201.929002 315.724096 
L 202.839823 315.070641 
L 203.750643 315.341303 
L 204.661463 316.517459 
L 205.572284 318.553493 
L 206.483104 321.380576 
L 207.393925 324.911545 
L 209.215565 333.677641 
L 211.037206 343.994635 
L 217.412949 381.788861 
L 219.23459 391.162656 
L 221.056231 399.529607 
L 222.877871 406.867382 
L 224.699512 413.214463 
L 226.521153 418.644812 
L 228.342794 423.249649 
L 230.164435 427.125125 
L 231.986075 430.364332 
L 233.807716 433.052191 
L 235.629357 435.261842 
L 237.450998 437.051153 
L 239.272639 438.457731 
L 241.094279 439.490228 
L 242.91592 440.113135 
L 243.826741 440.242025 
L 244.737561 440.222441 
L 245.648381 440.025312 
L 246.559202 439.613254 
L 247.470022 438.940185 
L 248.380843 437.951846 
L 249.291663 436.587669 
L 250.202483 434.784286 
L 251.113304 432.480719 
L 252.024124 429.624814 
L 252.934945 426.17999 
L 253.845765 422.131032 
L 255.667406 412.285274 
L 257.489047 400.455698 
L 260.221508 380.451572 
L 263.864789 353.416752 
L 265.68643 341.181235 
L 267.508071 330.571617 
L 268.418891 326.077393 
L 269.329712 322.242335 
L 270.240532 319.155213 
L 271.151353 316.894342 
L 272.062173 315.518668 
L 272.972993 315.061287 
L 273.883814 315.526399 
L 274.794634 316.889418 
L 275.705455 319.099448 
L 276.616275 322.083344 
L 277.527095 325.750751 
L 279.348736 334.721726 
L 281.170377 345.152335 
L 286.635299 377.845973 
L 288.45694 387.590284 
L 290.278581 396.360265 
L 292.100222 404.101036 
L 293.921863 410.830561 
L 295.743503 416.611367 
L 297.565144 421.529633 
L 299.386785 425.680717 
L 301.208426 429.159646 
L 303.030067 432.055037 
L 304.851707 434.445054 
L 306.673348 436.394044 
L 308.494989 437.94836 
L 310.31663 439.129436 
L 312.138271 439.921499 
L 313.049091 440.151696 
L 313.959911 440.251028 
L 314.870732 440.196356 
L 315.781552 439.956902 
L 316.692373 439.493439 
L 317.603193 438.758063 
L 318.514013 437.694965 
L 319.424834 436.24263 
L 320.335654 434.337712 
L 321.246475 431.920545 
L 322.157295 428.941738 
L 323.068115 425.368829 
L 323.978936 421.191708 
L 325.800576 411.111114 
L 327.622217 399.105573 
L 330.354678 378.985953 
L 333.99796 352.05544 
L 335.819601 339.964847 
L 337.641242 329.565072 
L 338.552062 325.203546 
L 339.462882 321.520484 
L 340.373703 318.603221 
L 341.284523 316.526643 
L 342.195344 315.344623 
L 343.106164 315.084246 
L 344.016984 315.74348 
L 344.927805 317.291869 
L 345.838625 319.673398 
L 346.749446 322.810816 
L 347.660266 326.610807 
L 349.481907 335.778214 
L 352.214368 351.840435 
L 355.85765 373.775321 
L 357.67929 383.865652 
L 359.500931 393.030733 
L 361.322572 401.177703 
L 363.144213 408.299646 
L 364.965854 414.444444 
L 366.787494 419.691018 
L 368.609135 424.13249 
L 370.430776 427.8649 
L 372.252417 430.979952 
L 374.074058 433.560331 
L 375.895698 435.676238 
L 377.717339 437.381731 
L 379.53898 438.709154 
L 381.360621 439.65931 
L 383.182262 440.184478 
L 384.093082 440.253202 
L 385.003902 440.16204 
L 385.914723 439.878472 
L 386.825543 439.361414 
L 387.736364 438.561172 
L 388.647184 437.420483 
L 389.558004 435.877059 
L 390.468825 433.867828 
L 391.379645 431.334738 
L 392.290466 428.231467 
L 393.201286 424.529925 
L 394.112106 420.225244 
L 395.933747 409.914351 
L 397.755388 397.740475 
L 400.487849 377.518049 
L 404.131131 350.70569 
L 405.952772 338.766496 
L 407.774412 328.584148 
L 408.685233 324.359475 
L 409.596053 320.832433 
L 410.506874 318.088495 
L 411.417694 316.198721 
L 412.328514 315.211646 
L 413.239335 315.148238 
L 414.150155 316.000268 
L 415.060976 317.731538 
L 415.971796 320.281113 
L 416.882616 323.567867 
L 417.793437 327.495779 
L 419.615078 336.849833 
L 422.347539 353.026679 
L 425.08 369.592963 
L 425.08 369.592963 
" style="fill:none;stroke:#ff6600;stroke-linecap:square;stroke-width:3;"/>
   </g>
   <g id="patch_7">
    <path d="M 14.3 457.781569 
L 14.3 256.823137 
" style="fill:none;stroke:#000000;stroke-linecap:square;stroke-linejoin:miter;stroke-width:0.8;"/>
   </g>
   <g id="patch_8">
    <path d="M 14.3 457.781569 
L 425.08 457.781569 
" style="fill:none;stroke:#000000;stroke-linecap:square;stroke-linejoin:miter;stroke-width:0.8;"/>
   </g>
  </g>
  <g id="axes_3">
   <g id="patch_9">
    <path d="M 14.3 673.04 
L 425.08 673.04 
L 425.08 472.081569 
L 14.3 472.081569 
z
" style="fill:#ffffff;"/>
   </g>
   <g id="matplotlib.axis_5">
    <g id="xtick_21">
     <g id="line2d_29">
      <g>
       <use style="stroke:#000000;stroke-width:0.8;" x="15.21082" xlink:href="#m69e99f70bd" y="673.04"/>
      </g>
     </g>
    </g>
    <g id="xtick_22">
     <g id="line2d_30">
      <g>
       <use style="stroke:#000000;stroke-width:0.8;" x="60.75184" xlink:href="#m69e99f70bd" y="673.04"/>
      </g>
     </g>
     <g id="text_3">
      <!-- 10 -->
      <g transform="translate(41.66434 702.835312)scale(0.3 -0.3)">
       <defs>
        <path d="M 794 531 
L 1825 531 
L 1825 4091 
L 703 3866 
L 703 4441 
L 1819 4666 
L 2450 4666 
L 2450 531 
L 3481 531 
L 3481 0 
L 794 0 
L 794 531 
z
" id="DejaVuSans-31" transform="scale(0.015625)"/>
        <path d="M 2034 4250 
Q 1547 4250 1301 3770 
Q 1056 3291 1056 2328 
Q 1056 1369 1301 889 
Q 1547 409 2034 409 
Q 2525 409 2770 889 
Q 3016 1369 3016 2328 
Q 3016 3291 2770 3770 
Q 2525 4250 2034 4250 
z
M 2034 4750 
Q 2819 4750 3233 4129 
Q 3647 3509 3647 2328 
Q 3647 1150 3233 529 
Q 2819 -91 2034 -91 
Q 1250 -91 836 529 
Q 422 1150 422 2328 
Q 422 3509 836 4129 
Q 1250 4750 2034 4750 
z
" id="DejaVuSans-30" transform="scale(0.015625)"/>
       </defs>
       <use xlink:href="#DejaVuSans-31"/>
       <use x="63.623047" xlink:href="#DejaVuSans-30"/>
      </g>
     </g>
    </g>
    <g id="xtick_23">
     <g id="line2d_31">
      <g>
       <use style="stroke:#000000;stroke-width:0.8;" x="106.29286" xlink:href="#m69e99f70bd" y="673.04"/>
      </g>
     </g>
    </g>
    <g id="xtick_24">
     <g id="line2d_32">
      <g>
       <use style="stroke:#000000;stroke-width:0.8;" x="151.83388" xlink:href="#m69e99f70bd" y="673.04"/>
      </g>
     </g>
     <g id="text_4">
      <!-- 20 -->
      <g transform="translate(132.74638 702.835312)scale(0.3 -0.3)">
       <defs>
        <path d="M 1228 531 
L 3431 531 
L 3431 0 
L 469 0 
L 469 531 
Q 828 903 1448 1529 
Q 2069 2156 2228 2338 
Q 2531 2678 2651 2914 
Q 2772 3150 2772 3378 
Q 2772 3750 2511 3984 
Q 2250 4219 1831 4219 
Q 1534 4219 1204 4116 
Q 875 4013 500 3803 
L 500 4441 
Q 881 4594 1212 4672 
Q 1544 4750 1819 4750 
Q 2544 4750 2975 4387 
Q 3406 4025 3406 3419 
Q 3406 3131 3298 2873 
Q 3191 2616 2906 2266 
Q 2828 2175 2409 1742 
Q 1991 1309 1228 531 
z
" id="DejaVuSans-32" transform="scale(0.015625)"/>
       </defs>
       <use xlink:href="#DejaVuSans-32"/>
       <use x="63.623047" xlink:href="#DejaVuSans-30"/>
      </g>
     </g>
    </g>
    <g id="xtick_25">
     <g id="line2d_33">
      <g>
       <use style="stroke:#000000;stroke-width:0.8;" x="197.3749" xlink:href="#m69e99f70bd" y="673.04"/>
      </g>
     </g>
    </g>
    <g id="xtick_26">
     <g id="line2d_34">
      <g>
       <use style="stroke:#000000;stroke-width:0.8;" x="242.91592" xlink:href="#m69e99f70bd" y="673.04"/>
      </g>
     </g>
     <g id="text_5">
      <!-- 30 -->
      <g transform="translate(223.82842 702.835312)scale(0.3 -0.3)">
       <defs>
        <path d="M 2597 2516 
Q 3050 2419 3304 2112 
Q 3559 1806 3559 1356 
Q 3559 666 3084 287 
Q 2609 -91 1734 -91 
Q 1441 -91 1130 -33 
Q 819 25 488 141 
L 488 750 
Q 750 597 1062 519 
Q 1375 441 1716 441 
Q 2309 441 2620 675 
Q 2931 909 2931 1356 
Q 2931 1769 2642 2001 
Q 2353 2234 1838 2234 
L 1294 2234 
L 1294 2753 
L 1863 2753 
Q 2328 2753 2575 2939 
Q 2822 3125 2822 3475 
Q 2822 3834 2567 4026 
Q 2313 4219 1838 4219 
Q 1578 4219 1281 4162 
Q 984 4106 628 3988 
L 628 4550 
Q 988 4650 1302 4700 
Q 1616 4750 1894 4750 
Q 2613 4750 3031 4423 
Q 3450 4097 3450 3541 
Q 3450 3153 3228 2886 
Q 3006 2619 2597 2516 
z
" id="DejaVuSans-33" transform="scale(0.015625)"/>
       </defs>
       <use xlink:href="#DejaVuSans-33"/>
       <use x="63.623047" xlink:href="#DejaVuSans-30"/>
      </g>
     </g>
    </g>
    <g id="xtick_27">
     <g id="line2d_35">
      <g>
       <use style="stroke:#000000;stroke-width:0.8;" x="288.45694" xlink:href="#m69e99f70bd" y="673.04"/>
      </g>
     </g>
    </g>
    <g id="xtick_28">
     <g id="line2d_36">
      <g>
       <use style="stroke:#000000;stroke-width:0.8;" x="333.99796" xlink:href="#m69e99f70bd" y="673.04"/>
      </g>
     </g>
     <g id="text_6">
      <!-- 40 -->
      <g transform="translate(314.91046 702.835312)scale(0.3 -0.3)">
       <defs>
        <path d="M 2419 4116 
L 825 1625 
L 2419 1625 
L 2419 4116 
z
M 2253 4666 
L 3047 4666 
L 3047 1625 
L 3713 1625 
L 3713 1100 
L 3047 1100 
L 3047 0 
L 2419 0 
L 2419 1100 
L 313 1100 
L 313 1709 
L 2253 4666 
z
" id="DejaVuSans-34" transform="scale(0.015625)"/>
       </defs>
       <use xlink:href="#DejaVuSans-34"/>
       <use x="63.623047" xlink:href="#DejaVuSans-30"/>
      </g>
     </g>
    </g>
    <g id="xtick_29">
     <g id="line2d_37">
      <g>
       <use style="stroke:#000000;stroke-width:0.8;" x="379.53898" xlink:href="#m69e99f70bd" y="673.04"/>
      </g>
     </g>
    </g>
    <g id="xtick_30">
     <g id="line2d_38">
      <g>
       <use style="stroke:#000000;stroke-width:0.8;" x="425.08" xlink:href="#m69e99f70bd" y="673.04"/>
      </g>
     </g>
     <g id="text_7">
      <!-- 50 -->
      <g transform="translate(405.9925 702.835312)scale(0.3 -0.3)">
       <defs>
        <path d="M 691 4666 
L 3169 4666 
L 3169 4134 
L 1269 4134 
L 1269 2991 
Q 1406 3038 1543 3061 
Q 1681 3084 1819 3084 
Q 2600 3084 3056 2656 
Q 3513 2228 3513 1497 
Q 3513 744 3044 326 
Q 2575 -91 1722 -91 
Q 1428 -91 1123 -41 
Q 819 9 494 109 
L 494 744 
Q 775 591 1075 516 
Q 1375 441 1709 441 
Q 2250 441 2565 725 
Q 2881 1009 2881 1497 
Q 2881 1984 2565 2268 
Q 2250 2553 1709 2553 
Q 1456 2553 1204 2497 
Q 953 2441 691 2322 
L 691 4666 
z
" id="DejaVuSans-35" transform="scale(0.015625)"/>
       </defs>
       <use xlink:href="#DejaVuSans-35"/>
       <use x="63.623047" xlink:href="#DejaVuSans-30"/>
      </g>
     </g>
    </g>
   </g>
   <g id="matplotlib.axis_6"/>
   <g id="line2d_39">
    <path clip-path="url(#pd9256d17eb)" d="M -1 483.505058 
L 0.637694 482.539871 
L 2.459335 481.655923 
L 5.191796 480.621142 
L 7.013437 506.247521 
L 8.835078 529.411118 
L 10.656718 550.277544 
L 12.478359 568.338447 
L 14.3 583.600796 
L 16.121641 596.345245 
L 17.943282 606.92148 
L 19.764922 615.667959 
L 21.586563 622.886134 
L 23.408204 628.835109 
L 25.229845 633.733691 
L 27.051486 637.764867 
L 28.873126 641.08079 
L 30.694767 643.80752 
L 32.516408 646.049243 
L 34.338049 647.891931 
L 36.15969 649.406439 
L 37.98133 650.651117 
L 39.802971 651.673988 
L 42.535432 652.876612 
L 45.267894 653.765873 
L 48.000355 654.40783 
L 50.732816 654.845167 
L 53.465277 655.097865 
L 56.197738 655.160167 
L 58.9302 654.992019 
L 60.75184 654.709698 
L 62.573481 654.240754 
L 64.395122 653.518885 
L 66.216763 652.449891 
L 68.038404 650.904133 
L 68.949224 649.90062 
L 69.860044 648.710176 
L 70.770865 647.304622 
L 71.681685 645.653592 
L 72.592506 643.725269 
L 73.503326 641.487488 
L 74.414146 638.909257 
L 75.324967 635.962673 
L 77.146608 628.881821 
L 78.968248 620.169887 
L 80.789889 609.935436 
L 83.52235 592.452705 
L 88.987273 555.950642 
L 90.808914 544.964589 
L 92.630554 535.012116 
L 94.452195 526.180933 
L 96.273836 518.473543 
L 98.095477 511.836098 
L 99.917118 506.182752 
L 101.738758 501.414401 
L 103.560399 497.433236 
L 105.38204 494.157257 
L 107.203681 491.545762 
L 108.114501 490.502683 
L 109.025322 489.668156 
L 109.936142 489.099852 
L 110.846962 488.900629 
L 111.757783 489.239264 
L 112.668603 490.365621 
L 113.579424 492.597527 
L 114.490244 496.250265 
L 115.401064 501.509782 
L 116.311885 508.319968 
L 118.133525 525.244432 
L 121.776807 561.283883 
L 123.598448 576.896146 
L 125.420089 590.313574 
L 127.241729 601.647317 
L 129.06337 611.130438 
L 130.885011 619.021064 
L 132.706652 625.564012 
L 134.528293 630.977318 
L 136.349933 635.44925 
L 138.171574 639.139633 
L 139.993215 642.182781 
L 141.814856 644.690851 
L 143.636497 646.757103 
L 145.458137 648.458847 
L 147.279778 649.860006 
L 149.101419 651.013266 
L 150.92306 651.961782 
L 153.655521 653.07505 
L 156.387982 653.893271 
L 159.120443 654.47635 
L 161.852905 654.860056 
L 164.585366 655.056451 
L 167.317827 655.049453 
L 170.050288 654.783869 
L 171.871929 654.40981 
L 173.69357 653.816395 
L 175.515211 652.924021 
L 177.336851 651.621482 
L 178.247672 650.771203 
L 179.158492 649.7588 
L 180.069313 648.558752 
L 180.980133 647.142972 
L 181.890953 645.481231 
L 182.801774 643.541902 
L 183.712594 641.293066 
L 184.623415 638.704031 
L 185.534235 635.747247 
L 187.355876 628.649354 
L 189.177517 619.927419 
L 190.999157 609.692321 
L 193.731619 592.227005 
L 199.196541 555.799452 
L 201.018182 544.839875 
L 202.839823 534.911644 
L 204.661463 526.101813 
L 206.483104 518.412782 
L 208.304745 511.790954 
L 210.126386 506.150956 
L 211.948027 501.394332 
L 213.769667 497.424194 
L 215.591308 494.160115 
L 217.412949 491.564768 
L 218.323769 490.533565 
L 219.23459 489.715675 
L 220.14541 489.171503 
L 221.056231 489.007674 
L 221.967051 489.397382 
L 222.877871 490.594016 
L 223.788692 492.91491 
L 224.699512 496.667415 
L 225.610333 502.022288 
L 226.521153 508.907259 
L 228.342794 525.891912 
L 231.986075 561.825945 
L 233.807716 577.358117 
L 235.629357 590.700841 
L 237.450998 601.969215 
L 239.272639 611.396751 
L 241.094279 619.240783 
L 242.91592 625.744977 
L 244.737561 631.126195 
L 246.559202 635.571632 
L 248.380843 639.240179 
L 250.202483 642.265352 
L 252.024124 644.758639 
L 253.845765 646.812737 
L 255.667406 648.504491 
L 257.489047 649.897438 
L 259.310687 651.043939 
L 261.132328 651.986868 
L 263.864789 653.093445 
L 266.597251 653.906428 
L 269.329712 654.4852 
L 272.062173 654.865052 
L 274.794634 655.057526 
L 277.527095 655.04586 
L 280.259557 654.773858 
L 282.081197 654.393808 
L 283.902838 653.792282 
L 285.724479 652.888795 
L 287.54612 651.571029 
L 288.45694 650.711187 
L 289.367761 649.687693 
L 290.278581 648.474856 
L 291.189401 647.044441 
L 292.100222 645.366109 
L 293.011042 643.408178 
L 293.921863 641.138761 
L 294.832683 638.527308 
L 295.743503 635.546538 
L 297.565144 628.397799 
L 299.386785 619.625567 
L 301.208426 609.347062 
L 303.940887 591.84178 
L 309.405809 555.440119 
L 311.22745 544.5108 
L 313.049091 534.61711 
L 314.870732 525.842992 
L 316.692373 518.188667 
L 318.514013 511.599209 
L 320.335654 505.988582 
L 322.157295 501.258179 
L 323.978936 497.311393 
L 325.800576 494.068648 
L 327.622217 491.494781 
L 328.533038 490.475945 
L 329.443858 489.67326 
L 330.354678 489.149507 
L 331.265499 489.014926 
L 332.176319 489.447556 
L 333.08714 490.705789 
L 333.99796 493.109189 
L 334.90878 496.96046 
L 335.819601 502.417287 
L 336.730421 509.390685 
L 338.552062 526.471944 
L 342.195344 562.351587 
L 344.016984 577.814958 
L 345.838625 591.089031 
L 347.660266 602.295108 
L 349.481907 611.668461 
L 351.303548 619.466371 
L 353.125188 625.931772 
L 354.946829 631.280593 
L 356.76847 635.699096 
L 358.590111 639.345317 
L 360.411752 642.35202 
L 362.233392 644.830049 
L 364.055033 646.871556 
L 365.876674 648.552926 
L 367.698315 649.93731 
L 369.519956 651.076745 
L 371.341596 652.013827 
L 374.074058 653.113401 
L 376.806519 653.92091 
L 379.53898 654.495193 
L 382.271441 654.871053 
L 385.003902 655.059499 
L 387.736364 655.043078 
L 390.468825 654.764576 
L 392.290466 654.378472 
L 394.112106 653.768752 
L 395.933747 652.854037 
L 397.755388 651.520877 
L 398.666208 650.651364 
L 399.577029 649.616649 
L 400.487849 648.390872 
L 401.39867 646.94565 
L 402.30949 645.25053 
L 403.22031 643.273782 
L 404.131131 640.98355 
L 405.041951 638.349433 
L 405.952772 635.34443 
L 407.774412 628.144378 
L 409.596053 619.321494 
L 411.417694 608.999403 
L 414.150155 591.454231 
L 419.615078 555.079202 
L 421.436718 544.180381 
L 423.258359 534.321434 
L 425.08 525.583193 
L 425.08 525.583193 
" style="fill:none;stroke:#0066ff;stroke-linecap:square;stroke-width:3;"/>
   </g>
   <g id="line2d_40">
    <path clip-path="url(#pd9256d17eb)" d="M -1 526.971085 
L 0.637694 525.045993 
L 2.459335 523.224535 
L 4.280976 521.684583 
L 5.191796 521.006858 
L 6.102616 520.617923 
L 7.013437 520.743892 
L 7.924257 521.387336 
L 8.835078 522.561109 
L 9.745898 524.277731 
L 10.656718 526.541551 
L 11.567539 529.34471 
L 12.478359 532.665531 
L 14.3 540.704795 
L 16.121641 550.231991 
L 18.854102 566.090341 
L 22.497384 587.300344 
L 24.319024 597.019735 
L 26.140665 605.846135 
L 27.962306 613.693989 
L 29.783947 620.557327 
L 31.605588 626.482409 
L 33.427228 631.545733 
L 35.248869 635.838082 
L 37.07051 639.453826 
L 38.892151 642.484283 
L 40.713792 645.013974 
L 42.535432 647.118829 
L 44.357073 648.8656 
L 46.178714 650.312042 
L 48.000355 651.50758 
L 49.821996 652.494146 
L 52.554457 653.657836 
L 55.286918 654.525164 
L 58.019379 655.168145 
L 61.662661 655.76406 
L 65.305942 656.121216 
L 68.038404 656.22094 
L 70.770865 656.077904 
L 72.592506 655.724506 
L 73.503326 655.417828 
L 74.414146 654.988575 
L 75.324967 654.40174 
L 76.235787 653.615914 
L 77.146608 652.584432 
L 78.057428 651.2578 
L 78.968248 649.587508 
L 79.879069 647.53093 
L 80.789889 645.056628 
L 81.70071 642.149015 
L 83.52235 635.066304 
L 85.343991 626.529209 
L 88.076452 612.022686 
L 92.630554 587.367138 
L 95.363016 574.102679 
L 97.184656 566.217725 
L 99.006297 559.142574 
L 100.827938 552.862961 
L 102.649579 547.337776 
L 104.47122 542.51127 
L 106.29286 538.321949 
L 108.114501 534.710075 
L 109.936142 531.627544 
L 111.757783 529.058942 
L 113.579424 527.069408 
L 114.490244 526.35272 
L 115.401064 525.877897 
L 116.311885 525.699515 
L 117.222705 525.875406 
L 118.133525 526.459974 
L 119.044346 527.498705 
L 119.955166 529.024595 
L 120.865987 531.056173 
L 121.776807 533.596584 
L 122.687627 536.633402 
L 124.509268 544.072493 
L 126.330909 553.000958 
L 129.06337 568.050133 
L 132.706652 588.446227 
L 135.439113 602.288553 
L 137.260754 610.435687 
L 139.082395 617.64176 
L 140.904035 623.919287 
L 142.725676 629.322961 
L 144.547317 633.930819 
L 146.368958 637.830879 
L 148.190599 641.112354 
L 150.012239 643.860311 
L 151.83388 646.152748 
L 153.655521 648.059282 
L 155.477162 649.640868 
L 157.298803 650.950123 
L 159.120443 652.031983 
L 160.942084 652.924497 
L 163.674545 653.976769 
L 166.407007 654.760188 
L 169.139468 655.339249 
L 172.782749 655.869351 
L 176.426031 656.163826 
L 179.158492 656.192832 
L 180.980133 656.054531 
L 182.801774 655.689569 
L 183.712594 655.375084 
L 184.623415 654.936427 
L 185.534235 654.338469 
L 186.445055 653.539772 
L 187.355876 652.493784 
L 188.266696 651.151308 
L 189.177517 649.464319 
L 190.088337 647.390856 
L 190.999157 644.90026 
L 191.909978 641.97774 
L 193.731619 634.872072 
L 195.553259 626.323642 
L 198.285721 611.821068 
L 202.839823 587.204665 
L 205.572284 573.968992 
L 207.393925 566.10235 
L 209.215565 559.044081 
L 211.037206 552.779686 
L 212.858847 547.268038 
L 214.680488 542.453519 
L 216.502129 538.274905 
L 218.323769 534.672947 
L 220.14541 531.600528 
L 221.967051 529.044364 
L 223.788692 527.073669 
L 224.699512 526.370486 
L 225.610333 525.91261 
L 226.521153 525.754749 
L 227.431973 525.954466 
L 228.342794 526.565581 
L 229.253614 527.632809 
L 230.164435 529.188283 
L 231.075255 531.24964 
L 231.986075 533.819124 
L 232.896896 536.883427 
L 234.718537 544.369548 
L 236.540177 553.330439 
L 239.272639 568.39664 
L 242.91592 588.765603 
L 245.648381 602.566272 
L 247.470022 610.68211 
L 249.291663 617.856953 
L 251.113304 624.104863 
L 252.934945 629.481418 
L 254.756585 634.065064 
L 256.578226 637.943906 
L 258.399867 641.207046 
L 260.221508 643.939327 
L 262.043149 646.218471 
L 263.864789 648.113804 
L 265.68643 649.686 
L 267.508071 650.987412 
L 269.329712 652.062741 
L 272.062173 653.332939 
L 274.794634 654.281277 
L 277.527095 654.985923 
L 281.170377 655.643195 
L 284.813659 656.051022 
L 288.45694 656.207436 
L 291.189401 656.046888 
L 293.011042 655.672508 
L 293.921863 655.351053 
L 294.832683 654.903397 
L 295.743503 654.294 
L 296.654324 653.481057 
L 297.565144 652.417764 
L 298.475965 651.054875 
L 299.386785 649.3446 
L 300.297605 647.245542 
L 301.208426 644.727924 
L 302.119246 641.778079 
L 303.940887 634.621708 
L 305.762528 626.034617 
L 308.494989 611.504741 
L 313.049091 586.910277 
L 315.781552 573.708689 
L 317.603193 565.867442 
L 319.424834 558.834655 
L 321.246475 552.594763 
L 323.068115 547.106022 
L 324.889756 542.312517 
L 326.711397 538.152974 
L 328.533038 534.568347 
L 330.354678 531.512165 
L 332.176319 528.972835 
L 333.99796 527.023364 
L 334.90878 526.334259 
L 335.819601 525.893725 
L 336.730421 525.756843 
L 337.641242 525.981126 
L 338.552062 526.619956 
L 339.462882 527.717331 
L 340.373703 529.30451 
L 341.284523 531.39817 
L 342.195344 533.999569 
L 343.106164 537.094424 
L 344.927805 544.634009 
L 346.749446 553.633634 
L 349.481907 568.725158 
L 353.125188 589.075018 
L 355.85765 602.837916 
L 357.67929 610.92426 
L 359.500931 618.069192 
L 361.322572 624.288434 
L 363.144213 629.638547 
L 364.965854 634.198455 
L 366.787494 638.056407 
L 368.609135 641.301436 
L 370.430776 644.01819 
L 372.252417 646.28414 
L 374.074058 648.168337 
L 375.895698 649.731181 
L 377.717339 651.024774 
L 379.53898 652.093585 
L 382.271441 653.356007 
L 385.003902 654.298462 
L 387.736364 654.998643 
L 391.379645 655.651474 
L 395.022927 656.055639 
L 398.666208 656.207222 
L 400.487849 656.135899 
L 402.30949 655.884986 
L 404.131131 655.32674 
L 405.041951 654.869948 
L 405.952772 654.248941 
L 406.863592 653.421548 
L 407.774412 652.340719 
L 408.685233 650.957171 
L 409.596053 649.223365 
L 410.506874 647.09849 
L 411.417694 644.553669 
L 412.328514 641.576374 
L 414.150155 634.369241 
L 415.971796 625.743644 
L 418.704257 611.186883 
L 423.258359 586.614967 
L 425.08 577.653001 
L 425.08 577.653001 
" style="fill:none;stroke:#ff6600;stroke-linecap:square;stroke-width:3;"/>
   </g>
   <g id="patch_10">
    <path d="M 14.3 673.04 
L 14.3 472.081569 
" style="fill:none;stroke:#000000;stroke-linecap:square;stroke-linejoin:miter;stroke-width:0.8;"/>
   </g>
   <g id="patch_11">
    <path d="M 14.3 673.04 
L 425.08 673.04 
" style="fill:none;stroke:#000000;stroke-linecap:square;stroke-linejoin:miter;stroke-width:0.8;"/>
   </g>
  </g>
 </g>
 <defs>
  <clipPath id="p5acec5dfb5">
   <rect height="200.958431" width="410.78" x="14.3" y="41.564706"/>
  </clipPath>
  <clipPath id="pdf7c588814">
   <rect height="200.958431" width="410.78" x="14.3" y="256.823137"/>
  </clipPath>
  <clipPath id="pd9256d17eb">
   <rect height="200.958431" width="410.78" x="14.3" y="472.081569"/>
  </clipPath>
 </defs>
</svg>
