<?xml version="1.0" encoding="utf-8" standalone="no"?>
<!DOCTYPE svg PUBLIC "-//W3C//DTD SVG 1.1//EN"
  "http://www.w3.org/Graphics/SVG/1.1/DTD/svg11.dtd">
<svg height="288pt" version="1.1" viewBox="0 0 648 288" width="648pt" xmlns="http://www.w3.org/2000/svg" xmlns:xlink="http://www.w3.org/1999/xlink">
 <metadata>
  <rdf:RDF xmlns:cc="http://creativecommons.org/ns#" xmlns:dc="http://purl.org/dc/elements/1.1/" xmlns:rdf="http://www.w3.org/1999/02/22-rdf-syntax-ns#">
   <cc:Work>
    <dc:type rdf:resource="http://purl.org/dc/dcmitype/StillImage"/>
    <dc:date>2022-04-08T14:26:34.573581</dc:date>
    <dc:format>image/svg+xml</dc:format>
    <dc:creator>
     <cc:Agent>
      <dc:title>Matplotlib v3.4.3, https://matplotlib.org/</dc:title>
     </cc:Agent>
    </dc:creator>
   </cc:Work>
  </rdf:RDF>
 </metadata>
 <defs>
  <style type="text/css">*{stroke-linecap:butt;stroke-linejoin:round;}</style>
 </defs>
 <g id="figure_1">
  <g id="patch_1">
   <path d="M 0 288 
L 648 288 
L 648 0 
L 0 0 
z
" style="fill:#ffffff;"/>
  </g>
  <g id="axes_1">
   <g id="patch_2">
    <path d="M 14.3 250.76 
L 511.606 250.76 
L 511.606 10.8 
L 14.3 10.8 
z
" style="fill:#ffffff;"/>
   </g>
   <g id="matplotlib.axis_1">
    <g id="xtick_1">
     <g id="line2d_1">
      <defs>
       <path d="M 0 0 
L 0 3.5 
" id="m0ad80e1c14" style="stroke:#000000;stroke-width:0.8;"/>
      </defs>
      <g>
       <use style="stroke:#000000;stroke-width:0.8;" x="36.904818" xlink:href="#m0ad80e1c14" y="250.76"/>
      </g>
     </g>
     <g id="text_1">
      <!-- 0 -->
      <g transform="translate(30.542318 272.956875)scale(0.2 -0.2)">
       <defs>
        <path d="M 2034 4250 
Q 1547 4250 1301 3770 
Q 1056 3291 1056 2328 
Q 1056 1369 1301 889 
Q 1547 409 2034 409 
Q 2525 409 2770 889 
Q 3016 1369 3016 2328 
Q 3016 3291 2770 3770 
Q 2525 4250 2034 4250 
z
M 2034 4750 
Q 2819 4750 3233 4129 
Q 3647 3509 3647 2328 
Q 3647 1150 3233 529 
Q 2819 -91 2034 -91 
Q 1250 -91 836 529 
Q 422 1150 422 2328 
Q 422 3509 836 4129 
Q 1250 4750 2034 4750 
z
" id="DejaVuSans-30" transform="scale(0.015625)"/>
       </defs>
       <use xlink:href="#DejaVuSans-30"/>
      </g>
     </g>
    </g>
    <g id="xtick_2">
     <g id="line2d_2">
      <g>
       <use style="stroke:#000000;stroke-width:0.8;" x="91.156382" xlink:href="#m0ad80e1c14" y="250.76"/>
      </g>
     </g>
    </g>
    <g id="xtick_3">
     <g id="line2d_3">
      <g>
       <use style="stroke:#000000;stroke-width:0.8;" x="145.407945" xlink:href="#m0ad80e1c14" y="250.76"/>
      </g>
     </g>
     <g id="text_2">
      <!-- 10 -->
      <g transform="translate(132.682945 272.956875)scale(0.2 -0.2)">
       <defs>
        <path d="M 794 531 
L 1825 531 
L 1825 4091 
L 703 3866 
L 703 4441 
L 1819 4666 
L 2450 4666 
L 2450 531 
L 3481 531 
L 3481 0 
L 794 0 
L 794 531 
z
" id="DejaVuSans-31" transform="scale(0.015625)"/>
       </defs>
       <use xlink:href="#DejaVuSans-31"/>
       <use x="63.623047" xlink:href="#DejaVuSans-30"/>
      </g>
     </g>
    </g>
    <g id="xtick_4">
     <g id="line2d_4">
      <g>
       <use style="stroke:#000000;stroke-width:0.8;" x="199.659509" xlink:href="#m0ad80e1c14" y="250.76"/>
      </g>
     </g>
    </g>
    <g id="xtick_5">
     <g id="line2d_5">
      <g>
       <use style="stroke:#000000;stroke-width:0.8;" x="253.911073" xlink:href="#m0ad80e1c14" y="250.76"/>
      </g>
     </g>
     <g id="text_3">
      <!-- 20 -->
      <g transform="translate(241.186073 272.956875)scale(0.2 -0.2)">
       <defs>
        <path d="M 1228 531 
L 3431 531 
L 3431 0 
L 469 0 
L 469 531 
Q 828 903 1448 1529 
Q 2069 2156 2228 2338 
Q 2531 2678 2651 2914 
Q 2772 3150 2772 3378 
Q 2772 3750 2511 3984 
Q 2250 4219 1831 4219 
Q 1534 4219 1204 4116 
Q 875 4013 500 3803 
L 500 4441 
Q 881 4594 1212 4672 
Q 1544 4750 1819 4750 
Q 2544 4750 2975 4387 
Q 3406 4025 3406 3419 
Q 3406 3131 3298 2873 
Q 3191 2616 2906 2266 
Q 2828 2175 2409 1742 
Q 1991 1309 1228 531 
z
" id="DejaVuSans-32" transform="scale(0.015625)"/>
       </defs>
       <use xlink:href="#DejaVuSans-32"/>
       <use x="63.623047" xlink:href="#DejaVuSans-30"/>
      </g>
     </g>
    </g>
    <g id="xtick_6">
     <g id="line2d_6">
      <g>
       <use style="stroke:#000000;stroke-width:0.8;" x="308.162636" xlink:href="#m0ad80e1c14" y="250.76"/>
      </g>
     </g>
    </g>
    <g id="xtick_7">
     <g id="line2d_7">
      <g>
       <use style="stroke:#000000;stroke-width:0.8;" x="362.4142" xlink:href="#m0ad80e1c14" y="250.76"/>
      </g>
     </g>
     <g id="text_4">
      <!-- 30 -->
      <g transform="translate(349.6892 272.956875)scale(0.2 -0.2)">
       <defs>
        <path d="M 2597 2516 
Q 3050 2419 3304 2112 
Q 3559 1806 3559 1356 
Q 3559 666 3084 287 
Q 2609 -91 1734 -91 
Q 1441 -91 1130 -33 
Q 819 25 488 141 
L 488 750 
Q 750 597 1062 519 
Q 1375 441 1716 441 
Q 2309 441 2620 675 
Q 2931 909 2931 1356 
Q 2931 1769 2642 2001 
Q 2353 2234 1838 2234 
L 1294 2234 
L 1294 2753 
L 1863 2753 
Q 2328 2753 2575 2939 
Q 2822 3125 2822 3475 
Q 2822 3834 2567 4026 
Q 2313 4219 1838 4219 
Q 1578 4219 1281 4162 
Q 984 4106 628 3988 
L 628 4550 
Q 988 4650 1302 4700 
Q 1616 4750 1894 4750 
Q 2613 4750 3031 4423 
Q 3450 4097 3450 3541 
Q 3450 3153 3228 2886 
Q 3006 2619 2597 2516 
z
" id="DejaVuSans-33" transform="scale(0.015625)"/>
       </defs>
       <use xlink:href="#DejaVuSans-33"/>
       <use x="63.623047" xlink:href="#DejaVuSans-30"/>
      </g>
     </g>
    </g>
    <g id="xtick_8">
     <g id="line2d_8">
      <g>
       <use style="stroke:#000000;stroke-width:0.8;" x="416.665764" xlink:href="#m0ad80e1c14" y="250.76"/>
      </g>
     </g>
    </g>
    <g id="xtick_9">
     <g id="line2d_9">
      <g>
       <use style="stroke:#000000;stroke-width:0.8;" x="470.917327" xlink:href="#m0ad80e1c14" y="250.76"/>
      </g>
     </g>
     <g id="text_5">
      <!-- 40 -->
      <g transform="translate(458.192327 272.956875)scale(0.2 -0.2)">
       <defs>
        <path d="M 2419 4116 
L 825 1625 
L 2419 1625 
L 2419 4116 
z
M 2253 4666 
L 3047 4666 
L 3047 1625 
L 3713 1625 
L 3713 1100 
L 3047 1100 
L 3047 0 
L 2419 0 
L 2419 1100 
L 313 1100 
L 313 1709 
L 2253 4666 
z
" id="DejaVuSans-34" transform="scale(0.015625)"/>
       </defs>
       <use xlink:href="#DejaVuSans-34"/>
       <use x="63.623047" xlink:href="#DejaVuSans-30"/>
      </g>
     </g>
    </g>
   </g>
   <g id="line2d_10">
    <path clip-path="url(#p63d599e5ae)" d="M 36.904818 178.465717 
L 38.803623 152.916596 
L 40.069493 138.785149 
L 41.154524 129.054909 
L 42.149136 122.069887 
L 43.053329 117.206312 
L 43.867102 113.912903 
L 44.680876 111.525147 
L 45.40423 110.071063 
L 46.037165 109.253816 
L 46.57968 108.855215 
L 47.122196 108.707856 
L 47.664712 108.788151 
L 48.297647 109.141143 
L 49.021001 109.849562 
L 49.834774 110.988084 
L 50.829386 112.802538 
L 52.004837 115.451239 
L 53.451545 119.321544 
L 55.169511 124.603838 
L 57.249155 131.744222 
L 59.961733 141.910804 
L 63.759342 157.1008 
L 73.886301 198.04472 
L 76.779717 208.604363 
L 79.040199 216.067348 
L 80.939004 221.629182 
L 82.65697 225.990321 
L 84.194098 229.286986 
L 85.550387 231.698161 
L 86.816257 233.533445 
L 88.082127 234.994493 
L 89.347996 236.12413 
L 90.704285 237.026812 
L 92.150994 237.713532 
L 93.778541 238.236313 
L 95.767765 238.634546 
L 98.389924 238.92081 
L 102.187533 239.0962 
L 107.251012 239.10381 
L 111.31988 238.904832 
L 114.484554 238.53853 
L 116.835455 238.060038 
L 118.643841 237.481922 
L 120.090549 236.797551 
L 121.266 236.008821 
L 122.260612 235.092046 
L 123.164804 233.964632 
L 123.978578 232.603121 
L 124.792351 230.76838 
L 125.515705 228.573925 
L 126.23906 225.63518 
L 126.962414 221.675695 
L 127.685768 216.363508 
L 128.499541 208.43058 
L 129.494153 196.120934 
L 133.563021 142.449262 
L 134.648052 131.986665 
L 135.642664 124.354279 
L 136.546857 118.953753 
L 137.451049 114.876577 
L 138.264823 112.207723 
L 138.988177 110.534122 
L 139.621112 109.546382 
L 140.254047 108.95425 
L 140.796563 108.729161 
L 141.339078 108.73903 
L 141.881594 108.96178 
L 142.514529 109.464184 
L 143.237883 110.323732 
L 144.142076 111.772441 
L 145.227107 113.979208 
L 146.492977 117.089079 
L 148.030104 121.48756 
L 149.928909 127.646807 
L 152.27981 136.079688 
L 155.354065 147.991592 
L 160.327125 168.284728 
L 166.566055 193.544644 
L 169.73073 205.435096 
L 172.17205 213.792672 
L 174.251693 220.135127 
L 175.96966 224.705328 
L 177.506787 228.206372 
L 178.953496 230.958814 
L 180.309785 233.058747 
L 181.575655 234.620881 
L 182.841524 235.838279 
L 184.107394 236.761754 
L 185.463683 237.48785 
L 187.000811 238.061049 
L 188.809196 238.497925 
L 191.160097 238.826684 
L 194.505611 239.047953 
L 199.297832 239.127376 
L 203.818796 238.997795 
L 207.254728 238.691215 
L 209.876887 238.251465 
L 211.866111 237.709833 
L 213.403239 237.080784 
L 214.669108 236.338477 
L 215.75414 235.45136 
L 216.748752 234.329607 
L 217.562525 233.088797 
L 218.376299 231.426647 
L 219.099653 229.448851 
L 219.823007 226.810067 
L 220.546361 223.259576 
L 221.269715 218.480598 
L 221.993069 212.150341 
L 222.806843 203.046394 
L 224.072713 185.978376 
L 226.514033 152.739724 
L 227.779903 138.640929 
L 228.864934 128.940525 
L 229.859546 121.981503 
L 230.763739 117.139316 
L 231.577512 113.862994 
L 232.391286 111.490261 
L 233.11464 110.047893 
L 233.747575 109.239739 
L 234.290091 108.848149 
L 234.832606 108.707144 
L 235.375122 108.793195 
L 236.008057 109.152224 
L 236.731411 109.866749 
L 237.545184 111.011257 
L 238.539796 112.831951 
L 239.715247 115.486761 
L 241.161955 119.363085 
L 242.879921 124.650865 
L 244.959565 131.796088 
L 247.672143 141.966839 
L 251.469752 157.159798 
L 261.596711 198.099608 
L 264.490128 208.6545 
L 266.750609 216.112274 
L 268.649414 221.668627 
L 270.36738 226.024019 
L 271.904508 229.315122 
L 273.260797 231.72132 
L 274.526667 233.552151 
L 275.792537 235.009152 
L 277.058407 236.135302 
L 278.414696 237.034948 
L 279.861404 237.719204 
L 281.488951 238.240026 
L 283.478175 238.636734 
L 286.100334 238.921895 
L 289.897943 239.096543 
L 294.961423 239.103487 
L 299.03029 238.903664 
L 302.194964 238.536248 
L 304.545865 238.056297 
L 306.354251 237.476249 
L 307.800959 236.78934 
L 308.97641 235.997391 
L 309.971022 235.07654 
L 310.875215 233.943711 
L 311.688988 232.575196 
L 312.502761 230.730417 
L 313.226116 228.523351 
L 313.94947 225.567173 
L 314.672824 221.584041 
L 315.396178 216.241469 
L 316.209952 208.270665 
L 317.204564 195.926609 
L 321.273431 142.295421 
L 322.358462 131.862592 
L 323.353074 124.256884 
L 324.257267 118.878663 
L 325.16146 114.821353 
L 325.975233 112.168183 
L 326.698587 110.506845 
L 327.331522 109.528636 
L 327.964457 108.945014 
L 328.506973 108.726483 
L 329.049488 108.742294 
L 329.592004 108.970427 
L 330.224939 109.478478 
L 330.948293 110.34374 
L 331.852486 111.798631 
L 332.937517 114.011632 
L 334.203387 117.127447 
L 335.740515 121.531627 
L 337.639319 127.696165 
L 339.99022 136.133627 
L 343.064476 148.049179 
L 348.127955 168.717152 
L 354.276465 193.60092 
L 357.44114 205.486922 
L 359.88246 213.839403 
L 361.871684 219.918165 
L 363.589651 224.517385 
L 365.126778 228.047097 
L 366.573487 230.827528 
L 367.929776 232.953086 
L 369.195645 234.537301 
L 370.461515 235.774042 
L 371.727385 236.713607 
L 373.083674 237.453272 
L 374.620802 238.037741 
L 376.429187 238.483475 
L 378.780088 238.818968 
L 382.035182 239.041142 
L 386.736984 239.128239 
L 391.348367 239.007199 
L 394.874719 238.700758 
L 397.587297 238.248321 
L 399.576521 237.704945 
L 401.113649 237.073654 
L 402.379519 236.328428 
L 403.46455 235.437491 
L 404.368743 234.428743 
L 405.272935 233.063421 
L 406.086709 231.39235 
L 406.810063 229.403364 
L 407.533417 226.749073 
L 408.256771 223.177347 
L 408.980125 218.370356 
L 409.70348 212.006739 
L 410.607672 201.73837 
L 411.963961 183.20387 
L 414.224443 152.563188 
L 415.490313 138.497104 
L 416.575344 128.826532 
L 417.569956 121.89348 
L 418.474149 117.07264 
L 419.287923 113.81337 
L 420.101696 111.455623 
L 420.82505 110.024942 
L 421.457985 109.225857 
L 422.000501 108.841261 
L 422.543016 108.706592 
L 423.085532 108.798385 
L 423.718467 109.163436 
L 424.441821 109.884049 
L 425.255595 111.034529 
L 426.250207 112.861446 
L 427.425657 115.522351 
L 428.872365 119.404678 
L 430.590332 124.697931 
L 432.760394 132.173615 
L 435.472972 142.374316 
L 439.361001 157.958367 
L 449.126283 197.465854 
L 452.019699 208.074905 
L 454.3706 215.875415 
L 456.269405 221.460528 
L 457.987371 225.8461 
L 459.524499 229.166454 
L 460.880788 231.598856 
L 462.146658 233.453158 
L 463.412528 234.931523 
L 464.678397 236.076101 
L 466.034687 236.99181 
L 467.481395 237.689119 
L 469.108942 238.220325 
L 471.098166 238.625126 
L 473.720325 238.916136 
L 477.517934 239.094717 
L 482.581413 239.105158 
L 486.7407 238.902493 
L 489.001182 238.665041 
L 489.001182 238.665041 
" style="fill:none;stroke:#1f77b4;stroke-dasharray:7.4,3.2;stroke-dashoffset:0;stroke-width:2;"/>
   </g>
   <g id="line2d_11">
    <path clip-path="url(#p63d599e5ae)" d="M 36.904818 212.113489 
L 38.713204 199.57162 
L 40.973685 185.498893 
L 43.686264 170.058962 
L 46.941357 152.864169 
L 50.738967 134.027265 
L 55.169511 113.195366 
L 60.32341 90.057778 
L 66.110243 65.109849 
L 71.625819 42.258767 
L 74.519236 31.053884 
L 76.056363 25.896569 
L 76.960556 23.507485 
L 77.593491 22.330369 
L 78.045587 21.83945 
L 78.407264 21.707288 
L 78.768941 21.843457 
L 79.130619 22.277853 
L 79.582715 23.272666 
L 80.125231 25.146919 
L 80.758165 28.219203 
L 81.662358 33.939886 
L 83.018647 44.259975 
L 86.816257 75.712823 
L 92.422252 121.291787 
L 96.671957 154.088898 
L 99.927051 177.572939 
L 102.54921 194.92476 
L 104.628853 207.270715 
L 106.34682 216.21242 
L 107.793528 222.654833 
L 109.059398 227.360361 
L 110.234848 230.904177 
L 111.31988 233.479009 
L 112.314492 235.297318 
L 113.309104 236.665547 
L 114.303716 237.663965 
L 115.388747 238.426845 
L 116.564197 238.974475 
L 118.010906 239.384302 
L 119.909711 239.664213 
L 122.712708 239.826829 
L 125.425286 239.804951 
L 126.14864 239.615617 
L 126.600737 239.268216 
L 126.962414 238.692374 
L 127.324091 237.656736 
L 127.776187 235.474612 
L 128.409122 230.92605 
L 131.392958 207.501512 
L 133.382182 194.296315 
L 135.823503 179.647804 
L 138.716919 163.672723 
L 142.152852 145.973713 
L 146.221719 126.218896 
L 150.923521 104.520536 
L 156.348677 80.557753 
L 162.316349 55.212293 
L 166.927732 36.49265 
L 169.097795 28.482014 
L 170.363665 24.598445 
L 171.177438 22.759879 
L 171.719954 21.988334 
L 172.17205 21.715119 
L 172.533727 21.786708 
L 172.895404 22.150201 
L 173.347501 23.050881 
L 173.890016 24.811963 
L 174.522951 27.765507 
L 175.336725 32.744059 
L 176.602595 42.154376 
L 179.496011 65.99678 
L 185.644522 116.313687 
L 189.984647 150.071358 
L 193.33016 174.47346 
L 196.042738 192.682691 
L 198.212801 205.787676 
L 200.021186 215.368731 
L 201.467895 221.939614 
L 202.733764 226.769055 
L 203.909215 230.43098 
L 204.994246 233.110173 
L 205.988858 235.014469 
L 206.98347 236.455695 
L 207.978082 237.512689 
L 209.063113 238.323768 
L 210.238564 238.908032 
L 211.594853 239.325727 
L 213.403239 239.626824 
L 216.025397 239.808784 
L 219.099653 239.822233 
L 219.913426 239.653023 
L 220.365523 239.35589 
L 220.7272 238.858319 
L 221.088877 237.945878 
L 221.450554 236.436583 
L 221.993069 232.980506 
L 223.258939 222.582864 
L 224.976905 209.377742 
L 226.87571 196.54774 
L 229.226611 182.221894 
L 232.029609 166.541354 
L 235.375122 149.116201 
L 239.263151 130.051786 
L 243.874533 108.5841 
L 249.118851 85.242371 
L 254.996104 60.095811 
L 260.059583 39.30905 
L 262.591323 29.708256 
L 263.947612 25.326112 
L 264.851805 23.091902 
L 265.48474 22.077708 
L 265.936836 21.736762 
L 266.298513 21.745437 
L 266.66019 22.039321 
L 267.021867 22.644542 
L 267.473964 23.862221 
L 268.016479 25.998261 
L 268.739833 29.879706 
L 269.734445 36.651812 
L 271.452412 50.270754 
L 281.398532 131.370989 
L 285.28656 160.890846 
L 288.360816 182.622121 
L 290.802136 198.372247 
L 292.79136 209.82399 
L 294.418907 217.990086 
L 295.865615 224.147395 
L 297.131485 228.581408 
L 298.216516 231.645479 
L 299.301548 234.051665 
L 300.29616 235.733023 
L 301.290772 236.98654 
L 302.285384 237.894008 
L 303.370415 238.582817 
L 304.636285 239.104095 
L 306.173412 239.473917 
L 308.253056 239.720009 
L 311.508149 239.849998 
L 313.406954 239.759424 
L 313.94947 239.559152 
L 314.401566 239.137026 
L 314.763243 238.448255 
L 315.12492 237.243939 
L 315.577017 234.822876 
L 316.300371 229.326195 
L 318.651272 210.631 
L 320.550077 197.664686 
L 322.810559 183.767579 
L 325.613556 167.969426 
L 328.86865 150.910885 
L 332.756679 131.748131 
L 337.277642 110.611777 
L 342.52196 87.186259 
L 348.399213 61.965878 
L 353.643531 40.359829 
L 356.265689 30.324282 
L 357.712398 25.566028 
L 358.616591 23.263757 
L 359.249525 22.17819 
L 359.701622 21.771804 
L 360.063299 21.719283 
L 360.424976 21.944958 
L 360.786653 22.476708 
L 361.238749 23.599212 
L 361.781265 25.624505 
L 362.504619 29.380402 
L 363.408812 35.381062 
L 364.94594 47.364529 
L 376.971703 144.694614 
L 380.498055 170.744617 
L 383.301052 189.865942 
L 385.561534 203.797448 
L 387.369919 213.638997 
L 388.907047 220.851847 
L 390.263336 226.186013 
L 391.438787 229.961212 
L 392.523818 232.741563 
L 393.51843 234.730105 
L 394.513042 236.24358 
L 395.507654 237.359084 
L 396.502266 238.158903 
L 397.587297 238.761244 
L 398.853167 239.214155 
L 400.480714 239.547244 
L 402.741196 239.762374 
L 406.177128 239.849678 
L 407.352579 239.736993 
L 407.895094 239.495434 
L 408.256771 239.127052 
L 408.618448 238.4299 
L 408.980125 237.213474 
L 409.432222 234.776176 
L 410.155576 229.266256 
L 412.506477 210.57857 
L 414.405282 197.618052 
L 416.665764 183.725135 
L 419.468761 167.930264 
L 422.723855 150.874227 
L 426.611884 131.713509 
L 431.132847 110.578808 
L 436.377165 87.154667 
L 442.254418 61.935489 
L 447.498736 40.331025 
L 450.120895 30.298487 
L 451.567603 25.545023 
L 452.471796 23.248533 
L 453.104731 22.169042 
L 453.556827 21.768244 
L 453.918504 21.720963 
L 454.280181 21.952498 
L 454.641858 22.490585 
L 455.093955 23.621337 
L 455.63647 25.656291 
L 456.359824 29.423228 
L 457.264017 35.433285 
L 458.801145 47.423424 
L 470.736489 144.059599 
L 474.26284 170.152427 
L 477.065838 189.324657 
L 479.32632 203.314055 
L 481.134705 213.216346 
L 482.671833 220.491922 
L 484.028122 225.888527 
L 485.203572 229.720338 
L 486.288604 232.551637 
L 487.283216 234.582942 
L 488.277828 236.133366 
L 489.001182 237.001987 
L 489.001182 237.001987 
" style="fill:none;stroke:#ff7f0e;stroke-dasharray:7.4,3.2;stroke-dashoffset:0;stroke-width:2;"/>
   </g>
   <g id="line2d_12">
    <path clip-path="url(#p63d599e5ae)" d="M 36.904818 229.47533 
L 37.266495 229.386366 
L 37.718592 229.029131 
L 38.351527 228.1683 
L 39.1653 226.613196 
L 40.250331 224.021835 
L 41.877878 219.478339 
L 44.228779 212.188174 
L 48.026389 199.610333 
L 55.440769 174.143249 
L 80.306069 88.445104 
L 85.098291 72.662009 
L 88.715061 61.477168 
L 91.608478 53.217688 
L 93.86896 47.398322 
L 95.677345 43.31901 
L 97.124054 40.563221 
L 98.299504 38.761315 
L 99.294116 37.623237 
L 100.10789 37.012829 
L 100.831244 36.756569 
L 101.464179 36.786881 
L 102.006695 37.026038 
L 102.639629 37.582527 
L 103.272564 38.470064 
L 103.995919 39.933022 
L 104.719273 41.919167 
L 105.533046 44.825254 
L 106.437239 48.921137 
L 107.431851 54.464773 
L 108.697721 62.928112 
L 110.325268 75.543944 
L 112.947427 97.921612 
L 121.808515 174.42525 
L 125.154028 201.246989 
L 127.324091 216.976893 
L 128.409122 223.601316 
L 129.132476 226.799835 
L 129.674992 228.351734 
L 130.127088 229.110953 
L 130.579185 229.445312 
L 130.940862 229.453197 
L 131.392958 229.195321 
L 131.935474 228.571636 
L 132.658828 227.341614 
L 133.65344 225.140376 
L 135.009729 221.549318 
L 136.998953 215.603824 
L 140.073208 205.652737 
L 145.498365 187.232757 
L 178.41098 74.378528 
L 182.11817 62.808493 
L 185.102006 54.186913 
L 187.452907 48.041554 
L 189.351712 43.683065 
L 190.79842 40.865286 
L 191.973871 38.998688 
L 192.968483 37.792855 
L 193.782256 37.116118 
L 194.505611 36.791237 
L 195.138545 36.753089 
L 195.681061 36.926744 
L 196.223577 37.312093 
L 196.856512 38.057379 
L 197.489447 39.153527 
L 198.212801 40.87789 
L 199.026574 43.469636 
L 199.930767 47.206199 
L 200.925379 52.368687 
L 202.100829 59.792439 
L 203.547538 70.514511 
L 205.627181 87.782535 
L 218.19546 194.990069 
L 220.63678 213.293374 
L 222.083489 222.659811 
L 222.806843 226.14753 
L 223.439778 228.160754 
L 223.891874 229.005096 
L 224.343971 229.412576 
L 224.705648 229.469701 
L 225.067325 229.326001 
L 225.519421 228.912843 
L 226.152356 227.992686 
L 226.966129 226.384786 
L 228.14158 223.510678 
L 229.859546 218.627755 
L 232.391286 210.681515 
L 236.550572 196.801732 
L 245.230823 166.888236 
L 266.931448 92.069952 
L 272.175766 74.646539 
L 275.973375 62.786778 
L 278.957211 54.16704 
L 281.308112 48.023825 
L 283.206917 43.6678 
L 284.653625 40.852558 
L 285.829076 38.988606 
L 286.823688 37.785545 
L 287.637461 37.11152 
L 288.360816 36.789446 
L 288.993751 36.754099 
L 289.536266 36.930436 
L 290.078782 37.318742 
L 290.711717 38.067839 
L 291.344652 39.168182 
L 292.068006 40.897777 
L 292.881779 43.495851 
L 293.785972 47.239723 
L 294.780584 52.410075 
L 295.956035 59.84201 
L 297.402743 70.571423 
L 299.482386 87.844609 
L 311.960246 194.335461 
L 314.401566 212.706542 
L 315.848275 222.188552 
L 316.662048 226.176157 
L 317.294983 228.177982 
L 317.747079 229.014863 
L 318.199176 229.415904 
L 318.560853 229.468684 
L 318.92253 229.321317 
L 319.374626 228.904417 
L 320.007561 227.980294 
L 320.821335 226.36886 
L 321.996785 223.491567 
L 323.714751 218.606104 
L 326.246491 210.658089 
L 330.405777 196.777186 
L 339.086028 166.863215 
L 360.786653 92.045436 
L 366.030971 74.623273 
L 369.82858 62.765066 
L 372.812416 54.147173 
L 375.163317 48.006104 
L 377.062122 43.652546 
L 378.508831 40.839844 
L 379.684281 38.978543 
L 380.678893 37.778256 
L 381.492667 37.106948 
L 382.216021 36.787684 
L 382.848956 36.755142 
L 383.391471 36.934166 
L 383.933987 37.325433 
L 384.566922 38.078344 
L 385.199857 39.182887 
L 385.923211 40.917717 
L 386.736984 43.522123 
L 387.641177 47.273306 
L 388.635789 52.451517 
L 389.81124 59.891626 
L 391.257948 70.628362 
L 393.428011 88.685097 
L 405.544193 192.247797 
L 408.075933 211.471292 
L 409.61306 221.705375 
L 410.426834 225.838372 
L 411.059769 227.971739 
L 411.602284 229.024517 
L 412.054381 229.419139 
L 412.416058 229.467587 
L 412.777735 229.316566 
L 413.229831 228.895939 
L 413.862766 227.967863 
L 414.67654 226.352909 
L 415.85199 223.472442 
L 417.569956 218.584446 
L 420.101696 210.634659 
L 424.260983 196.752639 
L 432.941233 166.838193 
L 454.551439 92.328052 
L 459.886176 74.600009 
L 463.683785 62.743359 
L 466.667621 54.127312 
L 469.018523 47.988392 
L 470.826908 43.829026 
L 472.364036 40.827145 
L 473.539486 38.968498 
L 474.534098 37.77099 
L 475.347872 37.102402 
L 476.071226 36.785953 
L 476.704161 36.75622 
L 477.246676 36.937933 
L 477.789192 37.332165 
L 478.422127 38.088895 
L 479.055062 39.197642 
L 479.778416 40.937712 
L 480.592189 43.548453 
L 481.496382 47.306947 
L 482.490994 52.493014 
L 483.666445 59.941287 
L 485.113153 70.68533 
L 487.283216 88.747303 
L 489.001182 103.716656 
L 489.001182 103.716656 
" style="fill:none;stroke:#008000;stroke-linecap:square;stroke-width:3;"/>
   </g>
   <g id="patch_3">
    <path d="M 14.3 250.76 
L 14.3 10.8 
" style="fill:none;stroke:#000000;stroke-linecap:square;stroke-linejoin:miter;stroke-width:0.8;"/>
   </g>
   <g id="patch_4">
    <path d="M 511.606 250.76 
L 511.606 10.8 
" style="fill:none;stroke:#000000;stroke-linecap:square;stroke-linejoin:miter;stroke-width:0.8;"/>
   </g>
   <g id="patch_5">
    <path d="M 14.3 250.76 
L 511.606 250.76 
" style="fill:none;stroke:#000000;stroke-linecap:square;stroke-linejoin:miter;stroke-width:0.8;"/>
   </g>
   <g id="patch_6">
    <path d="M 14.3 10.8 
L 511.606 10.8 
" style="fill:none;stroke:#000000;stroke-linecap:square;stroke-linejoin:miter;stroke-width:0.8;"/>
   </g>
   <g id="legend_1">
    <g id="patch_7">
     <path d="M 524.869245 104.07055 
L 631.87862 104.07055 
Q 635.87862 104.07055 635.87862 100.07055 
L 635.87862 14.0018 
Q 635.87862 10.0018 631.87862 10.0018 
L 524.869245 10.0018 
Q 520.869245 10.0018 520.869245 14.0018 
L 520.869245 100.07055 
Q 520.869245 104.07055 524.869245 104.07055 
z
" style="fill:#ffffff;opacity:0.8;stroke:#cccccc;stroke-linejoin:miter;"/>
    </g>
    <g id="line2d_13">
     <path d="M 528.869245 26.198675 
L 568.869245 26.198675 
" style="fill:none;stroke:#1f77b4;stroke-dasharray:7.4,3.2;stroke-dashoffset:0;stroke-width:2;"/>
    </g>
    <g id="line2d_14"/>
    <g id="text_6">
     <!-- Raf -->
     <g transform="translate(584.869245 33.198675)scale(0.2 -0.2)">
      <defs>
       <path d="M 2841 2188 
Q 3044 2119 3236 1894 
Q 3428 1669 3622 1275 
L 4263 0 
L 3584 0 
L 2988 1197 
Q 2756 1666 2539 1819 
Q 2322 1972 1947 1972 
L 1259 1972 
L 1259 0 
L 628 0 
L 628 4666 
L 2053 4666 
Q 2853 4666 3247 4331 
Q 3641 3997 3641 3322 
Q 3641 2881 3436 2590 
Q 3231 2300 2841 2188 
z
M 1259 4147 
L 1259 2491 
L 2053 2491 
Q 2509 2491 2742 2702 
Q 2975 2913 2975 3322 
Q 2975 3731 2742 3939 
Q 2509 4147 2053 4147 
L 1259 4147 
z
" id="DejaVuSans-52" transform="scale(0.015625)"/>
       <path d="M 2194 1759 
Q 1497 1759 1228 1600 
Q 959 1441 959 1056 
Q 959 750 1161 570 
Q 1363 391 1709 391 
Q 2188 391 2477 730 
Q 2766 1069 2766 1631 
L 2766 1759 
L 2194 1759 
z
M 3341 1997 
L 3341 0 
L 2766 0 
L 2766 531 
Q 2569 213 2275 61 
Q 1981 -91 1556 -91 
Q 1019 -91 701 211 
Q 384 513 384 1019 
Q 384 1609 779 1909 
Q 1175 2209 1959 2209 
L 2766 2209 
L 2766 2266 
Q 2766 2663 2505 2880 
Q 2244 3097 1772 3097 
Q 1472 3097 1187 3025 
Q 903 2953 641 2809 
L 641 3341 
Q 956 3463 1253 3523 
Q 1550 3584 1831 3584 
Q 2591 3584 2966 3190 
Q 3341 2797 3341 1997 
z
" id="DejaVuSans-61" transform="scale(0.015625)"/>
       <path d="M 2375 4863 
L 2375 4384 
L 1825 4384 
Q 1516 4384 1395 4259 
Q 1275 4134 1275 3809 
L 1275 3500 
L 2222 3500 
L 2222 3053 
L 1275 3053 
L 1275 0 
L 697 0 
L 697 3053 
L 147 3053 
L 147 3500 
L 697 3500 
L 697 3744 
Q 697 4328 969 4595 
Q 1241 4863 1831 4863 
L 2375 4863 
z
" id="DejaVuSans-66" transform="scale(0.015625)"/>
      </defs>
      <use xlink:href="#DejaVuSans-52"/>
      <use x="67.232422" xlink:href="#DejaVuSans-61"/>
      <use x="128.511719" xlink:href="#DejaVuSans-66"/>
     </g>
    </g>
    <g id="line2d_15">
     <path d="M 528.869245 55.554925 
L 568.869245 55.554925 
" style="fill:none;stroke:#ff7f0e;stroke-dasharray:7.4,3.2;stroke-dashoffset:0;stroke-width:2;"/>
    </g>
    <g id="line2d_16"/>
    <g id="text_7">
     <!-- MEK -->
     <g transform="translate(584.869245 62.554925)scale(0.2 -0.2)">
      <defs>
       <path d="M 628 4666 
L 1569 4666 
L 2759 1491 
L 3956 4666 
L 4897 4666 
L 4897 0 
L 4281 0 
L 4281 4097 
L 3078 897 
L 2444 897 
L 1241 4097 
L 1241 0 
L 628 0 
L 628 4666 
z
" id="DejaVuSans-4d" transform="scale(0.015625)"/>
       <path d="M 628 4666 
L 3578 4666 
L 3578 4134 
L 1259 4134 
L 1259 2753 
L 3481 2753 
L 3481 2222 
L 1259 2222 
L 1259 531 
L 3634 531 
L 3634 0 
L 628 0 
L 628 4666 
z
" id="DejaVuSans-45" transform="scale(0.015625)"/>
       <path d="M 628 4666 
L 1259 4666 
L 1259 2694 
L 3353 4666 
L 4166 4666 
L 1850 2491 
L 4331 0 
L 3500 0 
L 1259 2247 
L 1259 0 
L 628 0 
L 628 4666 
z
" id="DejaVuSans-4b" transform="scale(0.015625)"/>
      </defs>
      <use xlink:href="#DejaVuSans-4d"/>
      <use x="86.279297" xlink:href="#DejaVuSans-45"/>
      <use x="149.462891" xlink:href="#DejaVuSans-4b"/>
     </g>
    </g>
    <g id="line2d_17">
     <path d="M 528.869245 84.911175 
L 568.869245 84.911175 
" style="fill:none;stroke:#008000;stroke-linecap:square;stroke-width:3;"/>
    </g>
    <g id="line2d_18"/>
    <g id="text_8">
     <!-- ERK -->
     <g transform="translate(584.869245 91.911175)scale(0.2 -0.2)">
      <use xlink:href="#DejaVuSans-45"/>
      <use x="63.183594" xlink:href="#DejaVuSans-52"/>
      <use x="132.666016" xlink:href="#DejaVuSans-4b"/>
     </g>
    </g>
   </g>
  </g>
 </g>
 <defs>
  <clipPath id="p63d599e5ae">
   <rect height="239.96" width="497.306" x="14.3" y="10.8"/>
  </clipPath>
 </defs>
</svg>
